<?xml version="1.0" encoding="UTF-8"?>
<!DOCTYPE svg PUBLIC "-//W3C//DTD SVG 1.1//EN" "http://www.w3.org/Graphics/SVG/1.1/DTD/svg11.dtd">
<!-- Creator: CorelDRAW 2019 (64-Bit) -->
<svg xmlns="http://www.w3.org/2000/svg" xml:space="preserve" width="2306px" height="480px" version="1.1" style="shape-rendering:geometricPrecision; text-rendering:geometricPrecision; image-rendering:optimizeQuality; fill-rule:evenodd; clip-rule:evenodd"
viewBox="0 0 2306 480"
 xmlns:xlink="http://www.w3.org/1999/xlink"
 xmlns:xodm="http://www.corel.com/coreldraw/odm/2003">
 <defs>
  <style type="text/css">
   <![CDATA[
    .fil0 {fill:#1C1C1A;fill-rule:nonzero}
    .fil2 {fill:#B61818;fill-rule:nonzero}
    .fil1 {fill:#F6A500;fill-rule:nonzero}
   ]]>
  </style>
 </defs>
 <g id="Layer_x0020_1">
  <metadata id="CorelCorpID_0Corel-Layer"/>
  <path class="fil0" d="M890.88 368.91l19.6 0 0 -81.54 78.45 81.54 27.07 0 -86.83 -88.39 77.5 -70.34 -25.22 0 -70.97 65.05 0 -139.77 -19.6 0 0 233.45zm-156.73 0l0 0 19.6 0 0 -87.76c0,-7.07 0.91,-14 2.51,-20.87 1.51,-6.62 4.27,-12.63 7.77,-18.36 7.28,-11.89 19.29,-18.56 36.73,-18.67 13.48,-0.09 23.48,4.4 29.25,13.08 5.85,8.75 8.42,20.94 8.42,36.11l0 96.47 19.61 0 0 -101.47c0,-17.84 -3.96,-32.44 -12.15,-43.58 -8.43,-11.46 -22.51,-17.27 -42.01,-17.42 -8.1,-0.06 -15.05,0.94 -20.86,2.8 -5.8,1.86 -10.69,4.47 -14.63,7.78 -3.73,3.12 -6.85,6.54 -9.33,10.27 -2.49,3.74 -4.69,7.47 -6.54,11.2l-0.64 0 0 -28.31 -18.98 0c0.82,12.65 1.25,25.11 1.25,37.34l0 121.39zm-51.59 -70.33l0 0c0,4.14 -0.22,9.43 -0.62,15.86 -0.41,6.22 -2.18,12.57 -5.3,18.99 -2.89,6.02 -7.59,11.2 -14.01,15.58 -6.65,4.54 -15.67,6.83 -27.07,6.83 -9.14,0 -16.7,-2.44 -23.04,-6.83 -6.52,-4.54 -9.96,-11.64 -9.96,-21.8 0,-8.73 2.5,-15.55 7.16,-20.85 4.47,-5.1 10.21,-8.95 17.43,-11.53 7.3,-2.6 15.35,-4.65 24.29,-5.28 8.49,-0.61 17,-0.61 25.51,-0.61l5.61 0 0 9.64zm1.86 70.33l0 0 19.3 0c-1.24,-10.15 -1.56,-21.25 -1.56,-33.29l0 -70.04c0,-39.85 -18.14,-59.73 -55.72,-59.14 -16.39,0.24 -31.95,4.04 -46.68,10.89l0 19c14.73,-8.93 30.29,-13.16 46.68,-13.08 24.69,0.12 36.12,13.59 36.12,40.77l0 8.1 -3.74 0c-10.36,0 -21.18,0.1 -32.38,0.93 -11.42,0.84 -21.95,3.43 -31.75,6.86 -9.71,3.4 -17.67,8.85 -23.95,16.5 -6.38,7.71 -9.4,18.14 -9.66,31.42 -0.15,8.11 2.38,17.56 9.35,27.7 3.42,5.01 9.18,8.6 16.18,11.84 6.9,3.19 15.77,5.29 26.76,5.29 10.38,0 20.25,-2.81 29.58,-7.79 9.34,-4.96 16.28,-12.14 20.85,-21.46l0.62 0 0 25.5zm-143.25 -79.36l0 0c0,7.47 -0.52,15.04 -1.57,22.72 -1.44,7.89 -4.04,15.14 -7.77,21.78 -3.33,6.23 -8.09,11.32 -14.32,15.27 -6.24,4.34 -14.01,6.52 -23.36,6.52 -8.71,0 -15.97,-2.18 -21.78,-6.52 -6.01,-3.95 -10.89,-9.24 -14.64,-15.89 -7.25,-14.11 -10.79,-28.74 -10.57,-43.88 -0.22,-15.57 3.21,-30.3 10.27,-44.21 3.73,-6.64 8.62,-12.04 14.63,-16.18 6.01,-3.95 13.38,-5.91 22.09,-5.91 9.35,0 17.12,1.96 23.36,5.91 6.23,3.74 10.99,8.92 14.32,15.56 3.73,6.22 6.33,13.29 7.77,21.16 1.05,7.89 1.57,15.78 1.57,23.67zm-113.62 79.36l0 0 19.61 0 0 -25.2 0.61 0c10.39,19.52 26.89,29.16 49.5,28.95 21.79,-0.43 38.2,-8.4 49.19,-23.96 10.79,-15.58 16.19,-35.29 16.19,-59.15 0,-24.7 -5,-44.63 -14.94,-59.77 -10.38,-15.35 -27.2,-23.14 -50.44,-23.34 -7.67,0 -14.43,1.14 -20.23,3.43 -5.81,2.27 -10.8,5.18 -14.94,8.7 -3.94,3.11 -7.06,6.34 -9.33,9.66 -2.51,3.52 -4.17,6.43 -5,8.71l-0.61 0 0 -101.48 -19.61 0 0 233.45z"/>
  <path class="fil0" d="M2263.03 173.73l42.97 0 0 -41.03 -42.97 0 0 41.03zm0 195.18l0 0 42.97 0 0 -165.05 -42.97 0 0 165.05zm-119.22 0l0 0 42.94 0 0 -60.58c0,-6.4 0.21,-13.35 0.64,-20.82 0.44,-7.68 1.68,-14.97 3.85,-21.8 2.3,-7.28 5.93,-13.07 10.58,-17.61 4.74,-4.66 11.32,-7.05 19.87,-7.05 8.34,0 14.75,1.16 19.24,3.51l0 -43.27c-4.49,-0.85 -8.88,-1.38 -13.15,-1.27 -12.82,0.31 -23.07,5.43 -31.09,14.73 -8,9.29 -12.82,18.07 -14.11,26.61l-0.63 0 0 -37.5 -38.14 0 0 165.05zm-114.56 -135.56l0 0c7.04,-0.15 12.94,1.6 17.64,4.81 4.68,3.2 8.53,7.39 10.89,12.81 4.89,11.24 7.06,22.97 7.06,34.94 0,5.55 -0.25,11.47 -1.29,17.63 -1.08,6.23 -3.32,12.07 -6.1,17.62 -2.56,5.14 -6.2,9.4 -10.89,12.82 -4.93,3.63 -10.91,5.47 -17.95,5.47 -7.07,0 -12.89,-1.9 -17.63,-5.47 -4.63,-3.49 -8.67,-7.63 -11.54,-12.82 -6.1,-11.05 -8.76,-22.86 -8.64,-35.25 0.08,-12.4 3.07,-23.99 8.96,-34.94 6.08,-11.27 15.81,-17.36 29.49,-17.62zm-81.73 202.89l0 0 42.95 0 0 -86.23 0.65 0c7.68,8.75 15.52,14.72 23.38,17.96 7.72,3.15 16.05,4.9 25.01,4.79 25.64,-0.31 43.97,-9.25 54.81,-26.59 10.52,-16.85 15.37,-36.97 15.37,-60.26 0,-23.52 -4.76,-43.7 -15.37,-60.25 -10.75,-16.78 -28.86,-25.75 -53.85,-25.64 -25.01,0.09 -42.09,9.71 -51.29,27.23l-0.64 0 0 -23.39 -41.02 0 0 232.38zm-47.43 -111.54l0 0c-7.92,4.68 -16.42,8.4 -25.32,11.53 -9.25,3.25 -19.02,5.13 -29.49,5.13 -13.23,0 -24.05,-3.86 -32.7,-11.23 -8.43,-7.16 -13.35,-17.2 -14.41,-30.43l114.11 0c0.19,-29.5 -4.91,-53.57 -16.04,-71.81 -11.32,-18.51 -32.36,-27.99 -62.49,-27.87 -25.43,0.09 -44.61,8.82 -57.38,25.31 -12.87,16.63 -19.41,37.29 -19.24,61.86 0.45,56.19 29.39,84.96 86.24,85.57 22.63,0.24 41.55,-4.38 56.72,-13.14l0 -34.92zm-101.92 -54.5l0 0c0.85,-11.31 4.44,-20.67 10.89,-27.88 6.37,-7.1 15.49,-10.89 27.25,-10.89 11.97,0 20.74,4.04 26.28,11.54 5.36,7.24 8.22,16.33 8.65,27.23l-73.07 0zm-196.8 98.71l0 0 42.95 0 0 -80.12 0.65 0 55.13 80.12 54.47 0 -69.22 -91.35 61.53 -73.7 -50.63 0 -51.28 66.03 -0.65 0 0 -141.36 -42.95 0 0 240.38zm-41.66 -165.05l0 0 -42.96 0 0 80.77c0,5.33 -0.43,11.11 -1.27,17.3 -0.86,6.19 -2.96,11.98 -5.78,17.65 -2.73,5.45 -6.37,10.05 -11.21,13.75 -5.21,3.99 -11.64,6.12 -19.55,6.12 -6.64,0 -11.85,-1.63 -15.7,-4.83 -3.62,-2.98 -6.63,-6.75 -8.34,-11.54 -1.71,-4.83 -2.46,-10.15 -2.88,-15.71 -0.21,-2.77 -0.13,-5.44 -0.32,-8.02 -0.23,-2.55 -0.65,-5.01 -0.65,-7.36l0 -88.13 -42.95 0 0 104.17c0,18.79 4.78,34.05 13.79,46.16 8.96,12.01 22.85,18.68 42.3,18.57 22.66,-0.1 40.71,-9.18 54.17,-26.27l0.64 0 0 22.42 40.71 0 0 -165.05zm-292 117.3l0 0c0,-6.41 1.86,-11.43 5.14,-15.38 3.12,-3.75 6.95,-6.73 11.86,-8.64 4.92,-1.93 10.15,-3.13 15.7,-3.86 2.58,-0.33 5.13,-0.64 7.7,-0.64l7.37 0 18.59 0c0.21,13.04 -2.57,24.5 -8.98,33.97 -6.61,9.77 -16.88,14.61 -30.12,14.75 -7.91,0.08 -14.22,-1.88 -19.22,-5.13 -5.25,-3.37 -8.04,-8.24 -8.04,-15.07zm-21.79 -71.78l0 0c15.17,-11.76 32.16,-17.83 50.96,-17.95 12.82,-0.09 22.29,2.5 28.21,7.68 6.04,5.28 8.98,14.65 8.98,27.88l-23.72 0c-8.97,0 -18.39,0.43 -28.22,1.62 -9.61,1.15 -18.65,4.04 -27.23,8 -8.08,3.72 -14.62,9.39 -19.87,16.98 -5.4,7.81 -8.42,17.74 -8.32,30.13 0.11,15.81 6.4,27.74 18.25,36.21 11.43,8.2 24.47,12.72 39.42,12.83 10.25,0.08 20.07,-2.6 29.49,-7.68 9.18,-4.95 16.35,-11.87 21.48,-20.84l0.64 0c0,6.42 0.64,14.63 1.92,24.67l37.83 0c-0.87,-12.38 -1.49,-24.67 -1.93,-36.85 -0.42,-11.53 -0.63,-25.32 -0.63,-41.34l0 -21.17c0,-47 -23.09,-70.13 -71.17,-69.53 -19.86,0.24 -38.98,4.37 -57.36,12.5l1.27 36.86zm-90.26 -75.65l0 0 42.95 0 0 -41.03 -42.95 0 0 41.03zm0 195.18l0 0 42.95 0 0 -165.05 -42.95 0 0 165.05zm-120.44 0l0 0 42.95 0 0 -60.58c0,-6.4 0.21,-13.33 0.63,-20.82 0.44,-7.68 1.72,-14.97 3.85,-21.8 2.36,-7.25 5.88,-13.12 10.59,-17.61 4.69,-4.72 11.32,-7.05 19.86,-7.05 8.33,0 14.75,1.16 19.23,3.51l0 -43.27c-4.48,-0.85 -8.87,-1.27 -13.14,-1.27 -12.83,0.42 -23.18,5.33 -31.09,14.73 -8.12,9.19 -12.82,18.07 -14.1,26.61l-0.64 0 0 -37.5 -38.14 0 0 165.05z"/>
  <path class="fil0" d="M1286.67 435.87l7.94 0 0 -14.91c0,-0.98 0.09,-2.06 0.31,-3.23 0.18,-1.15 0.53,-2.25 1.05,-3.28 0.51,-1.04 1.23,-1.87 2.13,-2.58 0.91,-0.69 2.08,-1.02 3.48,-1.02 1.28,0 2.26,0.28 2.92,0.84 0.71,0.59 1.23,1.3 1.55,2.14 0.34,0.86 0.53,1.79 0.61,2.81 0.05,1.03 0.08,2.01 0.08,2.97l0 16.26 7.92 0 0 -19.23c0,-1.69 -0.21,-3.28 -0.59,-4.73 -0.4,-1.44 -1.01,-2.72 -1.87,-3.78 -0.84,-1.06 -1.93,-1.9 -3.2,-2.53 -1.32,-0.61 -2.87,-0.91 -4.69,-0.91 -2.09,0 -3.96,0.44 -5.6,1.31 -1.62,0.87 -2.96,2.05 -3.98,3.53l-0.12 0 0 -18.04 -7.94 0 0 44.38zm-22.95 -30.48l0 0 -7.94 0 0 14.91c0,1.01 -0.08,2.07 -0.28,3.24 -0.2,1.17 -0.56,2.26 -1.06,3.28 -0.52,1.02 -1.24,1.87 -2.14,2.57 -0.91,0.7 -2.07,1.03 -3.5,1.03 -1.25,0 -2.24,-0.28 -2.95,-0.85 -0.7,-0.57 -1.22,-1.27 -1.53,-2.14 -0.31,-0.84 -0.5,-1.78 -0.55,-2.8 -0.08,-1.04 -0.11,-2.02 -0.11,-2.95l0 -16.29 -7.93 0 0 19.24c0,1.75 0.2,3.33 0.6,4.78 0.4,1.47 1.01,2.74 1.86,3.8 0.84,1.06 1.92,1.89 3.23,2.47 1.29,0.61 2.85,0.9 4.66,0.9 2.1,0 3.98,-0.44 5.66,-1.31 1.67,-0.86 3.13,-2.04 4.34,-3.53l0.12 0 0 4.13 7.52 0 0 -30.48zm-78.91 30.48l0 0 7.68 0 0 -3.72 0.1 0c1.15,1.62 2.58,2.76 4.28,3.43 1.67,0.66 3.38,1 5.07,1 2.35,0 4.31,-0.44 5.94,-1.34 1.65,-0.89 2.97,-2.06 3.98,-3.54 1.01,-1.48 1.74,-3.19 2.19,-5.13 0.43,-1.92 0.68,-3.94 0.68,-6.02 0,-2.09 -0.25,-4.09 -0.68,-6.02 -0.45,-1.9 -1.18,-3.58 -2.19,-5.05 -1.01,-1.46 -2.33,-2.61 -3.98,-3.48 -1.63,-0.87 -3.59,-1.31 -5.94,-1.31 -2.08,0 -3.84,0.41 -5.3,1.21 -1.42,0.82 -2.69,1.94 -3.81,3.42l-0.1 0 0 -17.83 -7.92 0 0 44.38zm7.97 -15.32l0 0c0,-1.07 0.14,-2.18 0.38,-3.32 0.26,-1.14 0.68,-2.19 1.24,-3.12 0.59,-0.96 1.3,-1.73 2.22,-2.34 0.92,-0.61 2,-0.92 3.26,-0.92 1.29,0 2.36,0.31 3.18,0.95 0.84,0.61 1.5,1.42 2.02,2.36 0.51,0.96 0.88,1.99 1.07,3.13 0.21,1.15 0.29,2.24 0.29,3.26 0,1.07 -0.11,2.16 -0.32,3.31 -0.21,1.14 -0.57,2.2 -1.07,3.19 -0.49,0.98 -1.17,1.8 -2.04,2.43 -0.86,0.64 -1.95,0.94 -3.24,0.94 -1.31,0 -2.42,-0.3 -3.32,-0.94 -0.91,-0.63 -1.64,-1.42 -2.17,-2.41 -0.53,-0.95 -0.91,-2.02 -1.16,-3.19 -0.23,-1.15 -0.34,-2.26 -0.34,-3.33zm-75.5 15.32l0 0 7.94 0 0 -14.79c0,-1 0.05,-2.06 0.18,-3.25 0.11,-1.19 0.37,-2.3 0.8,-3.35 0.4,-1.04 1,-1.9 1.79,-2.61 0.79,-0.69 1.84,-1.02 3.14,-1.02 1.14,0 2.02,0.23 2.63,0.66 0.62,0.47 1.06,1.03 1.36,1.71 0.3,0.67 0.46,1.39 0.5,2.22 0.04,0.79 0.07,1.57 0.07,2.27l0 18.16 7.92 0 0 -14.79c0,-1 0.07,-2.06 0.18,-3.25 0.12,-1.19 0.39,-2.3 0.8,-3.35 0.41,-1.04 1.02,-1.9 1.79,-2.61 0.79,-0.69 1.84,-1.02 3.15,-1.02 1.14,0 2.02,0.23 2.62,0.66 0.63,0.47 1.08,1.03 1.36,1.71 0.3,0.67 0.48,1.39 0.51,2.22 0.04,0.79 0.06,1.57 0.06,2.27l0 18.16 7.92 0 0 -19.23c0,-1.69 -0.13,-3.28 -0.43,-4.73 -0.3,-1.44 -0.82,-2.72 -1.57,-3.78 -0.74,-1.06 -1.74,-1.9 -2.96,-2.53 -1.23,-0.61 -2.78,-0.91 -4.67,-0.91 -1.85,0 -3.69,0.45 -5.48,1.34 -1.78,0.89 -3.13,2.23 -4.04,4.04 -0.87,-1.89 -2.06,-3.26 -3.56,-4.09 -1.49,-0.86 -3.31,-1.29 -5.43,-1.29 -1.51,0 -3.08,0.36 -4.71,1.08 -1.63,0.7 -3.09,1.99 -4.35,3.9l-0.11 0 0 -4.28 -7.41 0 0 30.48zm-22.83 -30.48l0 0 -7.93 0 0 14.91c0,1.01 -0.1,2.07 -0.29,3.24 -0.2,1.17 -0.56,2.26 -1.08,3.28 -0.51,1.02 -1.22,1.87 -2.11,2.57 -0.92,0.7 -2.09,1.03 -3.51,1.03 -1.25,0 -2.24,-0.28 -2.94,-0.85 -0.73,-0.57 -1.23,-1.27 -1.55,-2.14 -0.32,-0.84 -0.49,-1.78 -0.57,-2.8 -0.05,-1.04 -0.09,-2.02 -0.09,-2.95l0 -16.29 -7.92 0 0 19.24c0,1.75 0.21,3.33 0.59,4.78 0.41,1.47 1.02,2.74 1.88,3.8 0.84,1.06 1.92,1.89 3.22,2.47 1.29,0.61 2.85,0.9 4.67,0.9 2.08,0 3.97,-0.44 5.64,-1.31 1.67,-0.86 3.13,-2.04 4.35,-3.53l0.11 0 0 4.13 7.53 0 0 -30.48zm-63.19 21.31l0 0c0,3.03 0.83,5.45 2.49,7.23 1.66,1.75 4.04,2.65 7.15,2.65 1.19,0 2.26,-0.05 3.2,-0.18 0.94,-0.11 1.82,-0.29 2.67,-0.53l-0.25 -6.27c-0.44,0.26 -0.97,0.49 -1.59,0.62 -0.64,0.15 -1.3,0.2 -2.01,0.2 -0.76,0 -1.38,-0.13 -1.87,-0.4 -0.49,-0.29 -0.89,-0.67 -1.16,-1.14 -0.27,-0.47 -0.46,-1 -0.55,-1.6 -0.11,-0.58 -0.15,-1.22 -0.15,-1.88l0 -14.19 7.03 0 0 -5.82 -7.03 0 0 -8.62 -7.93 2.54 0 6.08 -5.87 0 0 5.82 5.87 0 0 15.49z"/>
  <path class="fil0" d="M1855.19 435.87l7.92 0 0 -14.91c0,-0.98 0.08,-2.07 0.29,-3.23 0.2,-1.15 0.56,-2.25 1.06,-3.28 0.5,-1.04 1.22,-1.89 2.13,-2.58 0.9,-0.69 2.07,-1.02 3.48,-1.02 1.27,0 2.26,0.28 2.95,0.84 0.67,0.59 1.19,1.3 1.54,2.15 0.32,0.85 0.53,1.78 0.59,2.82 0.05,1.01 0.07,1.99 0.07,2.95l0 16.26 7.92 0 0 -19.21c0,-1.7 -0.18,-3.3 -0.58,-4.75 -0.39,-1.47 -1,-2.72 -1.86,-3.8 -0.84,-1.04 -1.92,-1.88 -3.22,-2.51 -1.3,-0.61 -2.87,-0.91 -4.68,-0.91 -2.08,0 -3.96,0.37 -5.63,1.1 -1.65,0.72 -3.11,1.97 -4.36,3.74l-0.13 0 0 -4.14 -7.49 0 0 30.48zm-42.09 -8.82l0 0c0,-1.17 0.29,-2.11 0.88,-2.79 0.61,-0.72 1.33,-1.22 2.21,-1.59 0.86,-0.35 1.82,-0.58 2.84,-0.7 1.04,-0.13 1.98,-0.18 2.89,-0.18l3.43 0c0,1.19 -0.11,2.31 -0.33,3.37 -0.21,1.07 -0.65,2.03 -1.32,2.9 -0.63,0.84 -1.4,1.49 -2.34,1.99 -0.92,0.48 -2,0.73 -3.22,0.73 -1.42,0 -2.62,-0.31 -3.58,-0.89 -0.96,-0.59 -1.46,-1.53 -1.46,-2.84zm-4.02 -13.23l0 0c1.34,-1.04 2.83,-1.85 4.45,-2.44 1.62,-0.6 3.27,-0.89 4.97,-0.89 2.36,0 4.1,0.47 5.2,1.42 1.11,0.95 1.65,2.65 1.65,5.15l-4.38 0c-1.65,0 -3.4,0.1 -5.22,0.32 -1.85,0.22 -3.52,0.71 -5,1.46 -1.5,0.74 -2.76,1.8 -3.73,3.18 -0.98,1.38 -1.49,3.22 -1.49,5.51 0,1.46 0.32,2.76 0.93,3.88 0.61,1.11 1.41,2.07 2.39,2.84 0.98,0.77 2.13,1.33 3.41,1.75 1.28,0.39 2.59,0.58 3.93,0.58 0.9,0 1.82,-0.13 2.76,-0.36 0.91,-0.22 1.78,-0.56 2.62,-1.01 0.83,-0.43 1.59,-0.96 2.27,-1.65 0.69,-0.67 1.27,-1.41 1.75,-2.25l0.13 0c0.03,0.48 0.06,1.16 0.08,2.03 0,0.91 0.11,1.73 0.27,2.53l6.99 0c-0.1,-1.19 -0.16,-2.33 -0.21,-3.43 -0.07,-1.11 -0.11,-2.23 -0.16,-3.37 -0.03,-1.15 -0.06,-2.32 -0.08,-3.52 -0.03,-1.2 -0.03,-2.57 -0.03,-4.11l0 -3.91c0,-4.5 -1.04,-7.77 -3.08,-9.8 -2.05,-2.02 -5.42,-3.04 -10.05,-3.04 -1.7,0 -3.52,0.22 -5.42,0.62 -1.91,0.42 -3.64,0.99 -5.18,1.71l0.23 6.8zm-49.09 22.05l0 0 7.92 0 0 -14.79 0.11 0 10.17 14.79 10.07 0 -12.78 -16.87 11.36 -13.61 -9.34 0 -9.48 12.2 -0.11 0 0 -26.1 -7.92 0 0 44.38zm-30.73 -30.48l0 0 0 4.14 -0.12 0c-1.1,-1.77 -2.44,-3.02 -3.99,-3.74 -1.56,-0.73 -3.34,-1.1 -5.36,-1.1 -2.28,0 -4.22,0.49 -5.85,1.44 -1.61,0.99 -2.94,2.21 -4,3.73 -1.01,1.48 -1.8,3.17 -2.29,5.06 -0.49,1.9 -0.74,3.75 -0.74,5.56 0,2.05 0.22,4 0.67,5.88 0.47,1.83 1.17,3.48 2.17,4.89 0.98,1.43 2.27,2.54 3.83,3.38 1.59,0.81 3.5,1.24 5.76,1.24 2.23,0 4.19,-0.48 5.84,-1.46 1.67,-0.96 2.86,-2.09 3.62,-3.4l0.1 0c0,1.31 -0.05,2.65 -0.19,4.06 -0.14,1.39 -0.5,2.68 -1.11,3.85 -0.58,1.15 -1.51,2.1 -2.73,2.82 -1.25,0.74 -2.96,1.12 -5.13,1.12 -0.62,0 -1.33,-0.08 -2.1,-0.26 -0.77,-0.15 -1.55,-0.35 -2.37,-0.61 -0.81,-0.25 -1.59,-0.54 -2.36,-0.86 -0.77,-0.31 -1.45,-0.64 -2.03,-0.96l-0.65 6.75c1.88,0.8 3.71,1.34 5.5,1.65 1.78,0.28 3.45,0.42 5.02,0.42 3.2,0 5.81,-0.45 7.89,-1.35 2.08,-0.91 3.72,-2.1 4.95,-3.59 1.21,-1.46 2.06,-3.17 2.54,-5.1 0.46,-1.94 0.72,-3.96 0.72,-6.04l0 -27.52 -7.59 0zm-7.32 24.34l0 0c-1.15,0 -2.15,-0.29 -3,-0.86 -0.85,-0.57 -1.55,-1.32 -2.1,-2.2 -0.56,-0.87 -0.96,-1.88 -1.25,-3 -0.26,-1.09 -0.4,-2.15 -0.4,-3.19 0,-1.18 0.11,-2.33 0.35,-3.47 0.24,-1.15 0.63,-2.18 1.18,-3.09 0.54,-0.9 1.29,-1.64 2.2,-2.23 0.89,-0.56 2.01,-0.84 3.37,-0.84 1.14,0 2.12,0.23 2.97,0.74 0.86,0.48 1.56,1.16 2.09,2.04 0.53,0.88 0.92,1.89 1.18,3.03 0.27,1.11 0.37,2.34 0.37,3.64 0,1.28 -0.1,2.47 -0.37,3.61 -0.26,1.16 -0.69,2.15 -1.25,3.03 -0.58,0.86 -1.3,1.54 -2.18,2.03 -0.9,0.51 -1.94,0.76 -3.16,0.76zm-64.03 6.14l0 0 7.95 0 0 -14.91c0,-0.98 0.08,-2.07 0.28,-3.23 0.19,-1.15 0.55,-2.25 1.04,-3.28 0.54,-1.04 1.25,-1.89 2.15,-2.58 0.91,-0.69 2.06,-1.02 3.48,-1.02 1.28,0 2.24,0.28 2.94,0.84 0.68,0.59 1.21,1.3 1.53,2.15 0.34,0.85 0.56,1.78 0.61,2.82 0.05,1.01 0.08,1.99 0.08,2.95l0 16.26 7.92 0 0 -19.21c0,-1.7 -0.19,-3.3 -0.59,-4.75 -0.38,-1.47 -1.01,-2.72 -1.86,-3.8 -0.85,-1.04 -1.92,-1.88 -3.24,-2.51 -1.27,-0.61 -2.84,-0.91 -4.65,-0.91 -2.1,0 -3.99,0.37 -5.63,1.1 -1.65,0.72 -3.12,1.97 -4.37,3.74l-0.12 0 0 -4.14 -7.52 0 0 30.48zm-42.08 -8.82l0 0c0,-1.17 0.31,-2.11 0.9,-2.79 0.58,-0.72 1.32,-1.22 2.18,-1.59 0.87,-0.35 1.83,-0.58 2.84,-0.7 1.04,-0.13 2,-0.18 2.92,-0.18l3.4 0c0,1.19 -0.07,2.31 -0.31,3.37 -0.21,1.07 -0.65,2.03 -1.32,2.9 -0.63,0.84 -1.4,1.49 -2.35,1.99 -0.92,0.48 -2,0.73 -3.22,0.73 -1.4,0 -2.6,-0.31 -3.59,-0.89 -0.95,-0.59 -1.45,-1.53 -1.45,-2.84zm-4.01 -13.23l0 0c1.34,-1.04 2.82,-1.85 4.44,-2.44 1.61,-0.6 3.28,-0.89 4.95,-0.89 2.39,0 4.13,0.47 5.23,1.42 1.1,0.95 1.63,2.65 1.63,5.15l-4.36 0c-1.66,0 -3.4,0.1 -5.23,0.32 -1.83,0.22 -3.51,0.71 -4.99,1.46 -1.52,0.74 -2.75,1.8 -3.73,3.18 -1,1.38 -1.48,3.22 -1.48,5.51 0,1.46 0.31,2.76 0.9,3.88 0.61,1.11 1.42,2.07 2.39,2.84 1.01,0.77 2.13,1.33 3.43,1.75 1.28,0.39 2.58,0.58 3.91,0.58 0.91,0 1.84,-0.13 2.76,-0.36 0.93,-0.22 1.81,-0.56 2.63,-1.01 0.82,-0.43 1.59,-0.96 2.28,-1.65 0.68,-0.67 1.28,-1.41 1.74,-2.25l0.12 0c0.05,0.48 0.08,1.16 0.08,2.03 0.03,0.91 0.11,1.73 0.28,2.53l6.97 0c-0.07,-1.19 -0.14,-2.33 -0.19,-3.43 -0.07,-1.11 -0.12,-2.23 -0.15,-3.37 -0.05,-1.15 -0.08,-2.32 -0.1,-3.52 0,-1.2 -0.03,-2.57 -0.03,-4.11l0 -3.91c0,-4.5 -1.01,-7.77 -3.07,-9.8 -2.03,-2.02 -5.4,-3.04 -10.05,-3.04 -1.71,0 -3.51,0.22 -5.42,0.62 -1.89,0.42 -3.62,0.99 -5.19,1.71l0.25 6.8zm-52.54 22.05l0 0 7.69 0 0 -3.72 0.11 0c1.15,1.62 2.57,2.76 4.27,3.43 1.7,0.67 3.39,1 5.07,1 2.34,0 4.32,-0.44 5.95,-1.34 1.65,-0.89 2.98,-2.06 3.97,-3.54 1.01,-1.48 1.73,-3.19 2.2,-5.13 0.45,-1.92 0.67,-3.94 0.67,-6.02 0,-2.09 -0.22,-4.09 -0.67,-6.02 -0.47,-1.9 -1.19,-3.58 -2.2,-5.05 -0.99,-1.46 -2.32,-2.61 -3.97,-3.48 -1.63,-0.87 -3.61,-1.31 -5.95,-1.31 -2.07,0 -3.84,0.41 -5.28,1.21 -1.44,0.82 -2.71,1.94 -3.81,3.4l-0.13 0 0 -17.81 -7.92 0 0 44.38zm8 -15.32l0 0c0,-1.07 0.11,-2.16 0.37,-3.31 0.27,-1.14 0.67,-2.2 1.25,-3.13 0.56,-0.96 1.3,-1.73 2.21,-2.34 0.91,-0.61 1.99,-0.92 3.27,-0.92 1.28,0 2.34,0.31 3.18,0.95 0.83,0.61 1.51,1.4 2.01,2.36 0.5,0.96 0.86,1.99 1.06,3.13 0.2,1.15 0.31,2.24 0.31,3.26 0,1.07 -0.11,2.16 -0.32,3.31 -0.24,1.14 -0.57,2.2 -1.08,3.19 -0.49,0.98 -1.17,1.8 -2.03,2.43 -0.86,0.64 -1.97,0.94 -3.27,0.94 -1.3,0 -2.39,-0.3 -3.31,-0.94 -0.89,-0.63 -1.63,-1.42 -2.16,-2.41 -0.54,-0.95 -0.9,-2.02 -1.16,-3.19 -0.22,-1.15 -0.33,-2.26 -0.33,-3.33zm-75.51 15.32l0 0 7.93 0 0 -14.79c0,-1 0.07,-2.08 0.17,-3.25 0.14,-1.17 0.39,-2.29 0.81,-3.35 0.41,-1.04 1,-1.92 1.8,-2.61 0.79,-0.69 1.83,-1.02 3.13,-1.02 1.15,0 2.02,0.23 2.63,0.66 0.62,0.47 1.08,1.03 1.36,1.69 0.3,0.69 0.48,1.41 0.5,2.24 0.06,0.79 0.08,1.57 0.08,2.27l0 18.16 7.92 0 0 -14.79c0,-1 0.05,-2.08 0.19,-3.25 0.1,-1.17 0.37,-2.29 0.79,-3.35 0.42,-1.04 1.02,-1.92 1.78,-2.61 0.81,-0.69 1.86,-1.02 3.15,-1.02 1.14,0 2.04,0.23 2.62,0.66 0.63,0.47 1.09,1.03 1.38,1.69 0.29,0.69 0.46,1.41 0.5,2.24 0.03,0.79 0.06,1.57 0.06,2.27l0 18.16 7.93 0 0 -19.21c0,-1.7 -0.15,-3.3 -0.44,-4.75 -0.29,-1.47 -0.82,-2.72 -1.57,-3.8 -0.76,-1.04 -1.75,-1.88 -2.95,-2.51 -1.23,-0.61 -2.78,-0.91 -4.68,-0.91 -1.87,0 -3.69,0.45 -5.47,1.34 -1.8,0.88 -3.14,2.23 -4.06,4.04 -0.87,-1.89 -2.05,-3.26 -3.55,-4.09 -1.5,-0.86 -3.32,-1.29 -5.43,-1.29 -1.5,0 -3.09,0.36 -4.72,1.06 -1.63,0.73 -3.09,2.01 -4.34,3.91l-0.11 0 0 -4.27 -7.41 0 0 30.48zm-23.12 -8.16l0 0c-1.51,0.82 -3.1,1.54 -4.75,2.15 -1.65,0.61 -3.44,0.92 -5.37,0.92 -2.5,0 -4.52,-0.65 -6.07,-1.98 -1.57,-1.33 -2.43,-3.23 -2.64,-5.71l21.06 0c0,-2.65 -0.22,-5.11 -0.67,-7.36 -0.46,-2.29 -1.24,-4.22 -2.34,-5.82 -1.1,-1.62 -2.59,-2.89 -4.44,-3.83 -1.86,-0.93 -4.19,-1.39 -7.04,-1.39 -2.38,0 -4.43,0.43 -6.2,1.29 -1.78,0.83 -3.26,1.99 -4.41,3.45 -1.17,1.45 -2.05,3.16 -2.63,5.1 -0.59,1.97 -0.9,4.04 -0.9,6.25 0,5.04 1.4,8.95 4.18,11.69 2.78,2.73 6.68,4.11 11.74,4.11 2.11,0 4.04,-0.21 5.73,-0.63 1.7,-0.4 3.28,-1.01 4.75,-1.8l0 -6.44zm-18.83 -10.06l0 0c0.21,-2.05 0.87,-3.76 1.99,-5.11 1.11,-1.38 2.82,-2.05 5.04,-2.05 1.12,0 2.06,0.19 2.85,0.59 0.79,0.39 1.45,0.91 1.95,1.56 0.52,0.67 0.89,1.41 1.16,2.28 0.26,0.86 0.43,1.79 0.5,2.73l-13.49 0zm-53.12 18.22l0 0 7.92 0 0 -14.79 0.14 0 10.14 14.79 10.07 0 -12.78 -16.87 11.36 -13.61 -9.34 0 -9.45 12.2 -0.14 0 0 -26.1 -7.92 0 0 44.38z"/>
  <path class="fil0" d="M2282.7 427.06c0,-1.18 0.3,-2.12 0.88,-2.81 0.6,-0.71 1.32,-1.21 2.2,-1.58 0.88,-0.35 1.8,-0.59 2.84,-0.7 1.01,-0.13 1.99,-0.18 2.9,-0.18l3.42 0c0,1.19 -0.1,2.31 -0.31,3.37 -0.23,1.07 -0.67,2.03 -1.35,2.9 -0.62,0.82 -1.39,1.49 -2.32,1.98 -0.93,0.5 -2.02,0.75 -3.23,0.75 -1.42,0 -2.62,-0.3 -3.57,-0.89 -0.97,-0.6 -1.46,-1.54 -1.46,-2.84zm-4.01 -13.24l0 0c1.32,-1.04 2.81,-1.85 4.42,-2.44 1.63,-0.6 3.28,-0.89 4.98,-0.89 2.35,0 4.09,0.48 5.19,1.42 1.12,0.95 1.66,2.65 1.66,5.15l-4.38 0c-1.65,0 -3.4,0.1 -5.23,0.32 -1.82,0.22 -3.49,0.7 -5,1.46 -1.49,0.74 -2.74,1.8 -3.72,3.18 -0.98,1.38 -1.49,3.22 -1.49,5.51 0,1.46 0.32,2.76 0.93,3.88 0.62,1.11 1.4,2.07 2.4,2.84 0.98,0.77 2.1,1.34 3.4,1.72 1.27,0.4 2.6,0.61 3.93,0.61 0.9,0 1.81,-0.13 2.74,-0.35 0.95,-0.26 1.82,-0.57 2.65,-1.02 0.83,-0.43 1.57,-0.99 2.28,-1.65 0.67,-0.67 1.26,-1.41 1.74,-2.23l0.1 0c0.05,0.46 0.08,1.14 0.11,2.03 0.01,0.89 0.1,1.72 0.25,2.51l6.97 0c-0.05,-1.2 -0.13,-2.31 -0.19,-3.43 -0.06,-1.11 -0.1,-2.23 -0.15,-3.37 -0.03,-1.15 -0.05,-2.32 -0.08,-3.52 -0.03,-1.21 -0.03,-2.57 -0.03,-4.11l0 -3.91c0,-4.5 -1.03,-7.75 -3.08,-9.8 -2.07,-2.02 -5.41,-3.03 -10.07,-3.03 -1.7,0 -3.48,0.19 -5.4,0.61 -1.94,0.42 -3.63,0.99 -5.17,1.71l0.24 6.8zm-52.56 22.05l0 0 7.94 0 0 -14.91c0,-0.98 0.1,-2.07 0.3,-3.21 0.18,-1.17 0.54,-2.26 1.06,-3.3 0.5,-1.04 1.22,-1.89 2.13,-2.58 0.9,-0.67 2.07,-1.03 3.49,-1.03 1.25,0 2.23,0.29 2.92,0.85 0.71,0.59 1.21,1.3 1.54,2.15 0.33,0.84 0.52,1.78 0.6,2.82 0.05,1.01 0.08,1.99 0.08,2.95l0 16.26 7.93 0 0 -19.21c0,-1.7 -0.2,-3.3 -0.6,-4.75 -0.4,-1.47 -1.02,-2.72 -1.86,-3.78 -0.85,-1.06 -1.92,-1.92 -3.21,-2.51 -1.31,-0.63 -2.86,-0.92 -4.68,-0.92 -2.1,0 -3.96,0.43 -5.59,1.3 -1.64,0.85 -2.97,2.05 -3.99,3.55l-0.12 0 0 -18.06 -7.94 0 0 44.38zm-42.06 -8.81l0 0c0,-1.18 0.29,-2.12 0.89,-2.81 0.59,-0.71 1.31,-1.21 2.19,-1.58 0.88,-0.35 1.81,-0.59 2.84,-0.7 1.02,-0.13 2,-0.18 2.9,-0.18l3.43 0c0,1.19 -0.11,2.31 -0.32,3.37 -0.24,1.07 -0.68,2.03 -1.34,2.9 -0.63,0.82 -1.42,1.49 -2.34,1.98 -0.92,0.5 -2.01,0.75 -3.23,0.75 -1.41,0 -2.6,-0.3 -3.56,-0.89 -0.98,-0.6 -1.46,-1.54 -1.46,-2.84zm-4.01 -13.24l0 0c1.33,-1.04 2.8,-1.85 4.42,-2.44 1.62,-0.6 3.28,-0.89 4.97,-0.89 2.37,0 4.1,0.48 5.21,1.42 1.1,0.95 1.66,2.65 1.66,5.15l-4.38 0c-1.65,0 -3.4,0.1 -5.24,0.32 -1.83,0.22 -3.49,0.7 -5,1.46 -1.51,0.74 -2.73,1.8 -3.74,3.18 -0.97,1.38 -1.46,3.22 -1.46,5.51 0,1.46 0.29,2.76 0.9,3.88 0.61,1.11 1.42,2.07 2.42,2.84 0.98,0.77 2.1,1.34 3.4,1.72 1.28,0.4 2.58,0.61 3.93,0.61 0.9,0 1.82,-0.13 2.74,-0.35 0.93,-0.26 1.82,-0.57 2.63,-1.02 0.83,-0.43 1.59,-0.99 2.28,-1.65 0.69,-0.67 1.28,-1.41 1.76,-2.23l0.1 0c0.05,0.46 0.08,1.14 0.1,2.03 0.02,0.89 0.12,1.72 0.27,2.51l6.97 0c-0.06,-1.2 -0.14,-2.31 -0.2,-3.43 -0.07,-1.11 -0.11,-2.23 -0.15,-3.37 -0.04,-1.15 -0.06,-2.32 -0.09,-3.52 -0.01,-1.21 -0.04,-2.57 -0.04,-4.11l0 -3.91c0,-4.5 -1.01,-7.75 -3.05,-9.8 -2.08,-2.02 -5.41,-3.03 -10.07,-3.03 -1.71,0 -3.49,0.19 -5.4,0.61 -1.94,0.42 -3.64,0.99 -5.18,1.71l0.24 6.8zm-24.03 -8l0 0c-1.27,-0.28 -2.54,-0.53 -3.86,-0.77 -1.3,-0.24 -2.89,-0.35 -4.79,-0.35 -1.53,0 -3.03,0.19 -4.45,0.56 -1.45,0.37 -2.71,0.94 -3.83,1.7 -1.1,0.77 -2.01,1.75 -2.64,2.95 -0.7,1.17 -1.04,2.59 -1.04,4.25 0,1.86 0.36,3.31 1.06,4.38 0.67,1.07 1.53,1.9 2.53,2.56 1.01,0.61 2.09,1.09 3.32,1.4 1.2,0.32 2.31,0.65 3.29,1.02 1.04,0.34 1.88,0.78 2.56,1.28 0.69,0.52 1.04,1.26 1.04,2.26 0,0.74 -0.2,1.35 -0.52,1.82 -0.37,0.47 -0.82,0.85 -1.35,1.13 -0.53,0.28 -1.09,0.48 -1.67,0.59 -0.62,0.11 -1.18,0.19 -1.68,0.19 -1.38,0 -2.7,-0.19 -3.98,-0.53 -1.28,-0.36 -2.55,-0.86 -3.82,-1.49l-0.48 6.51c1.45,0.39 2.97,0.69 4.48,0.95 1.52,0.22 3.03,0.35 4.52,0.35 1.62,0 3.18,-0.18 4.73,-0.58 1.54,-0.36 2.89,-0.94 4.09,-1.73 1.17,-0.79 2.13,-1.8 2.87,-3.08 0.71,-1.26 1.09,-2.78 1.09,-4.56 0,-1.8 -0.34,-3.28 -1.04,-4.39 -0.69,-1.12 -1.54,-2.05 -2.55,-2.74 -0.98,-0.66 -2.1,-1.19 -3.29,-1.57 -1.22,-0.34 -2.31,-0.69 -3.32,-1.02 -1.01,-0.33 -1.86,-0.73 -2.55,-1.18 -0.69,-0.46 -1.04,-1.08 -1.04,-1.86 0,-0.64 0.16,-1.17 0.45,-1.59 0.29,-0.44 0.66,-0.81 1.09,-1.08 0.43,-0.28 0.93,-0.47 1.49,-0.56 0.56,-0.09 1.09,-0.15 1.64,-0.15 1.46,0 2.7,0.11 3.74,0.32 1.02,0.22 2.15,0.54 3.38,0.99l0.53 -5.98zm-41.6 -0.43l0 0 -7.94 0 0 14.92c0,0.97 -0.08,2.06 -0.29,3.23 -0.19,1.17 -0.55,2.26 -1.07,3.27 -0.52,1.03 -1.21,1.88 -2.12,2.59 -0.91,0.68 -2.08,1.02 -3.5,1.02 -1.25,0 -2.24,-0.29 -2.95,-0.86 -0.73,-0.55 -1.22,-1.28 -1.52,-2.11 -0.33,-0.87 -0.51,-1.78 -0.59,-2.82 -0.05,-1.04 -0.08,-2.01 -0.08,-2.95l0 -16.29 -7.93 0 0 19.24c0,1.73 0.2,3.34 0.59,4.8 0.4,1.45 1.03,2.72 1.86,3.78 0.86,1.06 1.93,1.89 3.22,2.49 1.3,0.58 2.87,0.88 4.68,0.88 2.08,0 3.98,-0.43 5.66,-1.3 1.67,-0.87 3.12,-2.05 4.34,-3.56l0.12 0 0 4.15 7.52 0 0 -30.48z"/>
  <polygon class="fil1" points="343.83,238.92 237.55,132.65 237.55,238.92 "/>
  <polygon class="fil1" points="213.78,106.27 107.51,0 107.51,106.27 "/>
  <polygon class="fil1" points="211.58,373.72 105.31,267.44 105.31,373.72 "/>
  <polygon class="fil2" points="132.25,238.92 237.56,345.18 343.83,238.92 "/>
  <polygon class="fil2" points="2.2,106.27 107.5,212.54 213.77,106.27 "/>
  <polygon class="fil2" points="0,373.72 105.31,480 211.58,373.72 "/>
 </g>
</svg>
