<?xml version="1.0" encoding="UTF-8"?>
<svg xmlns="http://www.w3.org/2000/svg" xmlns:xlink="http://www.w3.org/1999/xlink" width="px" height="px" viewBox="0 0 320 320" version="1.1">
<g id="surface1">
<path style=" stroke:none;fill-rule:nonzero;fill:rgb(9.411765%,62.352943%,88.235295%);fill-opacity:1;" d="M 182.398438 47.519531 L 183.359375 47.519531 L 182.238281 64.320312 L 181.761719 75.039062 L 181.441406 88.640625 L 181.441406 106.078125 L 181.761719 116.640625 L 182.078125 122.238281 L 185.921875 120.160156 L 188.480469 118.558594 L 191.519531 116.960938 L 194.078125 115.519531 L 198.398438 113.28125 L 203.199219 110.878906 L 207.679688 108.800781 L 213.761719 106.078125 L 218.078125 104.320312 L 223.359375 102.238281 L 228 100.480469 L 236.640625 97.441406 L 244.640625 94.878906 L 254.078125 92.160156 L 265.28125 89.28125 L 274.238281 87.199219 L 285.761719 84.960938 L 294.558594 83.519531 L 301.761719 82.558594 L 302.398438 82.558594 L 302.078125 83.199219 L 300.160156 85.28125 L 298.71875 87.039062 L 297.28125 88.640625 L 295.839844 90.398438 L 294.078125 92.320312 L 292.800781 93.921875 L 291.199219 95.679688 L 289.761719 97.441406 L 287.839844 99.679688 L 286.078125 101.761719 L 284.800781 103.359375 L 282.71875 105.761719 L 281.28125 107.519531 L 279.839844 109.121094 L 278.71875 110.558594 L 276.480469 113.28125 L 275.039062 115.039062 L 273.761719 116.640625 L 272 118.71875 L 270.238281 120.960938 L 268.480469 123.039062 L 266.878906 125.121094 L 265.601562 126.558594 L 264 128.640625 L 261.921875 131.199219 L 260.160156 133.441406 L 258.078125 136 L 256.480469 138.078125 L 255.039062 140 L 253.28125 142.238281 L 251.679688 144.320312 L 249.921875 146.558594 L 247.679688 149.441406 L 246.398438 151.199219 L 244.800781 153.28125 L 241.441406 157.761719 L 239.199219 160.800781 L 237.441406 163.199219 L 235.359375 166.078125 L 233.121094 169.28125 L 230.558594 173.121094 L 228.480469 176 L 223.839844 183.039062 L 221.601562 186.558594 L 219.679688 189.761719 L 216.960938 194.238281 L 214.078125 199.679688 L 212.480469 203.199219 L 211.679688 205.921875 L 211.199219 208.800781 L 211.199219 215.039062 L 211.679688 218.078125 L 212.480469 221.441406 L 213.921875 225.28125 L 215.519531 228.480469 L 216.640625 230.238281 L 218.078125 232.160156 L 219.839844 234.398438 L 223.679688 238.878906 L 225.441406 240.800781 L 227.679688 243.199219 L 228.960938 244.480469 L 230.238281 245.601562 L 232.640625 247.839844 L 234.398438 249.28125 L 236.160156 250.878906 L 238.398438 252.640625 L 241.28125 254.71875 L 244.640625 256.960938 L 247.679688 258.878906 L 252.320312 261.601562 L 257.921875 264.480469 L 266.238281 268.480469 L 267.039062 268.960938 L 267.039062 269.28125 L 262.238281 269.121094 L 261.121094 269.441406 L 260.960938 270.558594 L 261.121094 271.519531 L 258.878906 270.398438 L 255.519531 268.480469 L 249.921875 265.601562 L 246.238281 263.839844 L 243.679688 262.558594 L 237.28125 259.679688 L 230.238281 256.800781 L 222.558594 253.921875 L 219.359375 252.800781 L 212.480469 250.558594 L 207.199219 248.960938 L 201.441406 247.359375 L 190.71875 244.640625 L 182.078125 242.558594 L 176.800781 241.441406 L 169.441406 239.839844 L 158.238281 237.601562 L 149.921875 235.839844 L 139.679688 233.441406 L 132.640625 231.519531 L 126.878906 229.601562 L 122.878906 228 L 118.238281 225.761719 L 116.320312 224.480469 L 114.238281 222.878906 L 112.640625 221.441406 L 110.558594 219.519531 L 109.441406 218.398438 L 108 216.640625 L 106.398438 214.71875 L 104.320312 211.839844 L 102.558594 208.960938 L 98.878906 203.519531 L 97.441406 201.761719 L 96 200.160156 L 93.761719 198.238281 L 90.878906 196.160156 L 88 194.398438 L 84.320312 192.320312 L 79.519531 189.921875 L 74.71875 187.839844 L 70.238281 186.078125 L 65.121094 184.160156 L 57.121094 181.601562 L 50.398438 179.679688 L 41.441406 177.441406 L 25.28125 174.078125 L 24.480469 173.921875 L 24.480469 173.761719 L 25.761719 173.761719 L 34.238281 175.039062 L 44.160156 176.800781 L 57.601562 179.039062 L 64.640625 180.160156 L 67.839844 180.160156 L 72.480469 179.519531 L 76.640625 178.558594 L 80 177.441406 L 84.800781 175.039062 L 87.359375 174.238281 L 89.441406 173.921875 L 93.601562 173.921875 L 97.121094 174.558594 L 99.679688 175.519531 L 103.679688 177.601562 L 106.398438 179.039062 L 110.878906 180.800781 L 114.398438 181.921875 L 117.441406 182.558594 L 119.519531 182.71875 L 121.921875 182.398438 L 123.839844 181.601562 L 125.441406 180.480469 L 126.878906 178.71875 L 128.160156 176.480469 L 129.121094 174.238281 L 129.921875 171.359375 L 130.71875 167.199219 L 131.039062 164.640625 L 131.199219 162.398438 L 131.199219 156.160156 L 130.078125 151.679688 L 127.519531 143.199219 L 124.800781 134.878906 L 123.199219 129.601562 L 122.238281 125.761719 L 121.121094 120.320312 L 120.480469 115.679688 L 120 111.199219 L 119.839844 108 L 119.839844 101.28125 L 120.160156 98.558594 L 120.960938 95.679688 L 122.558594 91.839844 L 124.320312 88.480469 L 125.921875 86.078125 L 127.839844 83.519531 L 129.601562 81.441406 L 130.71875 80.160156 L 131.519531 79.199219 L 134.078125 76.640625 L 135.359375 75.519531 L 136.640625 74.238281 L 138.398438 72.800781 L 140.640625 70.878906 L 142.878906 69.121094 L 145.601562 67.039062 L 148.320312 65.121094 L 153.121094 61.921875 L 156.160156 60 L 160.800781 57.28125 L 163.359375 55.839844 L 169.761719 52.640625 L 174.078125 50.71875 L 177.121094 49.441406 Z M 182.398438 47.519531 "/>
<path style=" stroke:none;fill-rule:nonzero;fill:rgb(9.411765%,62.352943%,88.235295%);fill-opacity:1;" d="M 301.761719 82.558594 L 302.398438 82.558594 L 302.078125 83.199219 L 300.160156 85.28125 L 298.71875 87.039062 L 297.28125 88.640625 L 295.839844 90.398438 L 294.078125 92.320312 L 292.800781 93.921875 L 291.199219 95.679688 L 289.761719 97.441406 L 287.839844 99.679688 L 286.078125 101.761719 L 284.800781 103.359375 L 282.71875 105.761719 L 281.28125 107.519531 L 279.839844 109.121094 L 278.71875 110.558594 L 276.480469 113.28125 L 275.039062 115.039062 L 273.761719 116.640625 L 272 118.71875 L 270.238281 120.960938 L 268.480469 123.039062 L 266.878906 125.121094 L 265.601562 126.558594 L 264 128.640625 L 261.921875 131.199219 L 260.160156 133.441406 L 258.078125 136 L 256.480469 138.078125 L 255.039062 140 L 253.28125 142.238281 L 251.679688 144.320312 L 249.921875 146.558594 L 247.679688 149.441406 L 246.398438 151.199219 L 244.800781 153.28125 L 241.441406 157.761719 L 239.199219 160.800781 L 237.441406 163.199219 L 235.359375 166.078125 L 233.121094 169.28125 L 230.558594 173.121094 L 228.480469 176 L 223.839844 183.039062 L 221.601562 186.558594 L 219.679688 189.761719 L 216.960938 194.238281 L 214.078125 199.679688 L 212.480469 203.199219 L 211.679688 205.921875 L 211.199219 208.800781 L 211.039062 214.078125 L 210.878906 214.078125 L 210.71875 211.839844 L 210.238281 209.441406 L 209.601562 207.679688 L 208.960938 205.121094 L 208.480469 202.878906 L 207.679688 198.878906 L 206.878906 193.441406 L 206.398438 190.398438 L 206.078125 187.839844 L 205.441406 182.078125 L 204.800781 174.558594 L 204.480469 170.878906 L 204.160156 167.359375 L 204 163.519531 L 203.679688 159.359375 L 203.519531 155.199219 L 203.359375 151.839844 L 203.199219 146.078125 L 203.199219 129.441406 L 203.039062 121.761719 L 203.039062 116.160156 L 203.519531 111.199219 L 204 111.199219 L 204 110.878906 L 203.679688 110.71875 L 208.320312 108.480469 L 214.558594 105.761719 L 218.878906 104 L 226.238281 101.121094 L 232.960938 98.71875 L 238.558594 96.800781 L 246.238281 94.398438 L 252.960938 92.480469 L 262.078125 90.078125 L 271.359375 87.839844 L 277.441406 86.558594 L 287.519531 84.640625 L 295.679688 83.359375 Z M 301.761719 82.558594 "/>
<path style=" stroke:none;fill-rule:nonzero;fill:rgb(4.313726%,50.196081%,80.392158%);fill-opacity:1;" d="M 203.199219 110.878906 L 204 110.878906 L 204 111.199219 L 203.519531 111.199219 L 203.519531 113.441406 L 203.199219 116.160156 L 203.199219 123.839844 L 203.359375 129.601562 L 203.359375 147.839844 L 203.519531 153.28125 L 203.839844 159.039062 L 204 162.238281 L 204.160156 164.480469 L 204.480469 169.761719 L 204.800781 172.320312 L 205.441406 180.160156 L 205.921875 184.960938 L 206.398438 188.960938 L 206.878906 192.800781 L 207.679688 197.601562 L 208.160156 200.320312 L 208.800781 203.359375 L 209.28125 205.761719 L 210.078125 208.640625 L 210.558594 209.921875 L 210.878906 211.839844 L 211.199219 215.039062 L 211.679688 218.078125 L 212.480469 221.441406 L 213.921875 225.28125 L 213.761719 225.921875 L 212.800781 224.480469 L 212.160156 223.199219 L 211.039062 221.601562 L 209.921875 219.839844 L 208.960938 218.078125 L 206.878906 214.238281 L 206.238281 213.28125 L 204.480469 209.441406 L 203.039062 206.398438 L 200.960938 201.601562 L 200.640625 200.800781 L 200.640625 200.160156 L 200.320312 200.160156 L 199.199219 196.960938 L 198.078125 194.078125 L 195.839844 187.199219 L 195.039062 184.800781 L 194.238281 182.078125 L 193.28125 178.71875 L 192.800781 177.28125 L 192.160156 175.519531 L 190.078125 168.800781 L 188.800781 164.160156 L 187.679688 159.679688 L 186.558594 154.878906 L 185.601562 150.238281 L 185.121094 147.199219 L 184.640625 144.480469 L 184 140.640625 L 183.039062 132.480469 L 182.71875 128 L 182.398438 123.199219 L 182.398438 122.078125 L 186.398438 119.839844 L 188.800781 118.398438 L 196.160156 114.398438 Z M 203.199219 110.878906 "/>
<path style=" stroke:none;fill-rule:nonzero;fill:rgb(9.411765%,61.176473%,87.450981%);fill-opacity:1;" d="M 24.480469 173.761719 L 25.761719 173.761719 L 34.238281 175.039062 L 44.160156 176.800781 L 47.359375 177.441406 L 47.679688 177.761719 L 46.878906 177.921875 L 48 178.078125 L 47.839844 178.558594 L 48 178.878906 L 46.71875 178.71875 L 40.640625 177.28125 L 26.078125 174.238281 L 24.480469 173.921875 Z M 24.480469 173.761719 "/>
<path style=" stroke:none;fill-rule:nonzero;fill:rgb(4.705882%,51.764709%,81.176472%);fill-opacity:1;" d="M 266.078125 125.28125 L 266.398438 125.28125 L 266.078125 126.078125 L 264.480469 128 L 262.71875 130.238281 L 260.640625 132.800781 L 257.121094 137.28125 L 255.519531 139.359375 L 255.199219 139.359375 L 255.359375 138.71875 L 255.839844 137.761719 L 256.160156 137.441406 L 256.800781 136.320312 L 257.441406 136.160156 L 257.601562 135.199219 L 258.558594 134.398438 L 259.199219 133.28125 L 259.839844 132.960938 L 260.160156 132 L 260.640625 131.679688 L 260.640625 131.359375 L 260.960938 131.359375 L 260.960938 131.039062 L 261.28125 131.039062 L 261.601562 130.398438 L 262.078125 129.761719 L 262.398438 129.761719 L 262.71875 128.960938 L 263.199219 128.640625 L 263.359375 128 L 263.679688 128 L 264 127.199219 L 264.640625 126.558594 L 264.960938 126.558594 L 265.28125 125.601562 Z M 266.078125 125.28125 "/>
<path style=" stroke:none;fill-rule:nonzero;fill:rgb(5.098039%,51.764709%,81.568629%);fill-opacity:1;" d="M 226.078125 178.71875 L 226.398438 178.71875 L 226.238281 179.359375 L 223.839844 183.039062 L 221.601562 186.558594 L 219.679688 189.761719 L 219.039062 190.878906 L 218.71875 190.878906 L 218.71875 189.921875 L 219.199219 189.441406 L 219.359375 188.800781 L 219.839844 188.640625 L 220.160156 187.839844 L 220.640625 186.558594 L 221.441406 185.121094 L 221.761719 185.121094 L 222.71875 183.199219 L 223.039062 183.199219 L 223.839844 181.601562 L 224.480469 180.960938 L 224.800781 180.960938 L 225.121094 179.839844 L 225.441406 179.679688 L 225.28125 179.359375 L 225.761719 179.359375 Z M 226.078125 178.71875 "/>
<path style=" stroke:none;fill-rule:nonzero;fill:rgb(4.705882%,51.764709%,81.176472%);fill-opacity:1;" d="M 239.199219 159.519531 L 239.839844 159.519531 L 239.679688 160.160156 L 238.238281 162.078125 L 236.640625 164.320312 L 234.558594 167.199219 L 232.800781 169.761719 L 232.640625 170.078125 L 232.160156 169.921875 L 232.160156 169.441406 L 232.480469 169.441406 L 232.640625 168.640625 L 233.441406 168.480469 L 233.441406 167.679688 L 234.078125 166.558594 L 234.558594 166.238281 L 234.71875 165.601562 L 234.878906 165.28125 L 235.199219 165.28125 L 235.839844 164 L 236.480469 163.679688 L 236.640625 163.039062 L 237.121094 162.078125 L 237.601562 161.601562 L 238.078125 160.800781 L 238.398438 160.480469 L 238.878906 160.480469 L 239.039062 159.679688 Z M 239.199219 159.519531 "/>
<path style=" stroke:none;fill-rule:nonzero;fill:rgb(9.411765%,61.960787%,88.235295%);fill-opacity:1;" d="M 40.800781 176.640625 L 43.039062 176.640625 L 46.878906 177.28125 L 47.679688 177.601562 L 47.199219 177.921875 L 48 178.078125 L 47.839844 178.558594 L 48 178.878906 L 46.71875 178.71875 L 43.359375 177.921875 L 43.199219 177.441406 L 43.199219 177.28125 L 41.601562 177.28125 L 41.441406 176.960938 Z M 40.800781 176.640625 "/>
<path style=" stroke:none;fill-rule:nonzero;fill:rgb(4.705882%,51.764709%,81.176472%);fill-opacity:1;" d="M 298.558594 85.921875 L 299.359375 85.921875 L 299.039062 86.71875 L 297.28125 88.640625 L 295.839844 90.398438 L 294.078125 92.320312 L 293.28125 93.121094 L 293.121094 92.320312 L 294.078125 91.199219 L 294.398438 91.199219 L 294.398438 90.878906 L 294.71875 90.878906 L 295.039062 90.238281 L 295.359375 90.238281 L 295.359375 89.761719 L 296.480469 88.800781 L 296.960938 88.160156 L 297.28125 87.359375 L 298.238281 86.398438 L 298.558594 86.398438 Z M 298.558594 85.921875 "/>
<path style=" stroke:none;fill-rule:nonzero;fill:rgb(5.490196%,52.549022%,81.960785%);fill-opacity:1;" d="M 281.28125 106.238281 L 281.921875 106.398438 L 281.601562 107.199219 L 279.839844 109.121094 L 278.71875 110.558594 L 276.480469 113.28125 L 276 113.921875 L 275.519531 113.761719 L 275.519531 113.28125 L 276.320312 112.480469 L 277.121094 111.359375 L 277.441406 111.199219 L 277.601562 110.878906 L 278.238281 110.71875 L 278.078125 110.238281 L 278.71875 110.238281 L 278.71875 109.441406 L 280 108.320312 L 280.160156 108 L 280.480469 108 L 280.640625 107.039062 Z M 281.28125 106.238281 "/>
<path style=" stroke:none;fill-rule:nonzero;fill:rgb(5.098039%,52.156866%,81.568629%);fill-opacity:1;" d="M 301.761719 82.558594 L 302.398438 82.558594 L 302.078125 83.199219 L 300.640625 84.800781 L 300.320312 84.800781 L 300.320312 84 L 300 83.839844 L 299.199219 83.519531 L 298.238281 83.679688 L 296.960938 83.679688 L 296.640625 83.359375 L 299.359375 82.878906 Z M 301.761719 82.558594 "/>
<path style=" stroke:none;fill-rule:nonzero;fill:rgb(9.411765%,62.352943%,88.235295%);fill-opacity:1;" d="M 40 176.160156 L 42.238281 176.480469 L 42.238281 176.640625 L 41.441406 176.800781 L 41.601562 177.28125 L 42.238281 176.800781 L 42.398438 177.121094 L 43.519531 177.121094 L 43.679688 177.441406 L 43.359375 177.761719 L 42.078125 177.601562 L 38.398438 176.800781 L 38.398438 176.480469 L 39.039062 176.320312 L 39.679688 176.480469 L 40.160156 176.480469 Z M 40 176.160156 "/>
<path style=" stroke:none;fill-rule:nonzero;fill:rgb(5.098039%,52.156866%,81.568629%);fill-opacity:1;" d="M 288.320312 98.078125 L 288.960938 98.078125 L 288.640625 98.71875 L 287.199219 100.480469 L 286.238281 101.601562 L 285.441406 101.601562 L 285.761719 101.441406 L 285.761719 100.960938 L 286.078125 100.960938 L 286.398438 100.160156 L 286.878906 99.839844 L 287.199219 99.359375 L 287.519531 99.199219 L 287.679688 98.71875 L 288.160156 98.71875 Z M 288.320312 98.078125 "/>
<path style=" stroke:none;fill-rule:nonzero;fill:rgb(5.098039%,52.156866%,81.568629%);fill-opacity:1;" d="M 291.519531 94.238281 L 292.320312 94.238281 L 292 94.878906 L 290.238281 96.800781 L 289.441406 97.761719 L 289.121094 97.761719 L 289.121094 97.28125 L 289.441406 97.28125 L 289.761719 96.160156 L 290.238281 96 L 290.238281 95.519531 L 290.878906 95.359375 L 290.878906 94.878906 L 291.519531 94.71875 Z M 291.519531 94.238281 "/>
<path style=" stroke:none;fill-rule:nonzero;fill:rgb(9.411765%,62.352943%,88.235295%);fill-opacity:1;" d="M 35.679688 175.359375 L 39.519531 176 L 40.320312 176.480469 L 39.679688 176.640625 L 38.71875 176.480469 L 37.601562 176.640625 L 36.800781 176.480469 L 36.800781 176 L 35.679688 175.679688 Z M 35.679688 175.359375 "/>
<path style=" stroke:none;fill-rule:nonzero;fill:rgb(5.490196%,53.333336%,82.352942%);fill-opacity:1;" d="M 128.320312 82.878906 L 128.960938 83.039062 L 128 84.160156 L 127.679688 84.160156 L 127.519531 84.800781 L 127.199219 85.121094 L 126.878906 85.761719 L 126.558594 85.761719 L 126.238281 86.558594 L 125.761719 87.039062 L 124.960938 88.320312 L 124.800781 87.679688 L 126.398438 85.441406 Z M 128.320312 82.878906 "/>
<path style=" stroke:none;fill-rule:nonzero;fill:rgb(5.098039%,52.156866%,81.568629%);fill-opacity:1;" d="M 230.238281 172.160156 L 230.71875 172.320312 L 230.558594 173.121094 L 228.640625 175.839844 L 228.160156 175.839844 L 228.320312 175.199219 L 228.640625 175.199219 L 228.960938 174.078125 L 229.441406 173.921875 L 229.601562 173.121094 L 230.078125 172.960938 L 229.921875 172.640625 Z M 230.238281 172.160156 "/>
<path style=" stroke:none;fill-rule:nonzero;fill:rgb(4.705882%,51.372552%,81.176472%);fill-opacity:1;" d="M 284.480469 102.558594 L 285.121094 102.558594 L 284.960938 103.199219 L 283.519531 104.800781 L 282.398438 106.238281 L 281.921875 106.078125 L 282.078125 105.441406 L 282.398438 105.441406 L 282.71875 104.640625 L 283.359375 104.640625 L 283.359375 104.160156 L 283.839844 104.160156 L 283.839844 103.519531 L 284.160156 103.199219 L 284.640625 103.199219 Z M 284.480469 102.558594 "/>
<path style=" stroke:none;fill-rule:nonzero;fill:rgb(4.705882%,51.372552%,81.176472%);fill-opacity:1;" d="M 40.800781 176.640625 L 42.558594 176.640625 L 42.558594 176.800781 L 44 176.960938 L 44.800781 177.28125 L 44.480469 177.921875 L 43.359375 177.921875 L 43.199219 177.441406 L 43.199219 177.28125 L 41.601562 177.28125 L 41.441406 176.960938 Z M 40.800781 176.640625 "/>
<path style=" stroke:none;fill-rule:nonzero;fill:rgb(5.098039%,52.156866%,81.568629%);fill-opacity:1;" d="M 234.878906 250.078125 L 235.519531 250.238281 L 236.960938 251.519531 L 238.558594 252.800781 L 238.238281 252.960938 L 237.601562 252.640625 L 237.601562 252.320312 L 236 251.519531 L 236 251.199219 L 235.199219 250.878906 Z M 234.878906 250.078125 "/>
<path style=" stroke:none;fill-rule:nonzero;fill:rgb(5.490196%,52.941179%,81.960785%);fill-opacity:1;" d="M 264.160156 267.679688 L 264.960938 267.839844 L 267.039062 268.960938 L 267.039062 269.28125 L 266.078125 269.28125 L 265.921875 268.800781 L 264.640625 268.640625 L 264.320312 268.320312 Z M 264.160156 267.679688 "/>
<path style=" stroke:none;fill-rule:nonzero;fill:rgb(5.098039%,51.764709%,81.568629%);fill-opacity:1;" d="M 277.121094 111.359375 L 277.601562 111.519531 L 277.441406 112.160156 L 276 113.921875 L 275.519531 113.761719 L 275.519531 113.28125 L 276.320312 112.480469 Z M 277.121094 111.359375 "/>
<path style=" stroke:none;fill-rule:nonzero;fill:rgb(6.666667%,55.686277%,83.92157%);fill-opacity:1;" d="M 42.558594 176.640625 L 46.078125 177.121094 L 47.679688 177.601562 L 47.199219 177.921875 L 46.238281 177.761719 L 45.601562 177.601562 L 45.601562 177.28125 L 44.320312 177.28125 L 44 177.121094 L 42.398438 176.960938 Z M 42.558594 176.640625 "/>
<path style=" stroke:none;fill-rule:nonzero;fill:rgb(5.490196%,52.941179%,81.960785%);fill-opacity:1;" d="M 220.480469 187.679688 L 220.640625 188.160156 L 219.199219 190.558594 L 219.039062 190.878906 L 218.71875 190.878906 L 218.71875 189.921875 L 219.199219 189.441406 L 219.359375 188.800781 L 219.839844 188.640625 L 220.320312 187.839844 Z M 220.480469 187.679688 "/>
<path style=" stroke:none;fill-rule:nonzero;fill:rgb(5.098039%,52.549022%,81.960785%);fill-opacity:1;" d="M 230.71875 246.558594 L 231.519531 246.71875 L 232.640625 247.839844 L 233.921875 248.960938 L 233.441406 248.960938 L 232.480469 248.480469 L 231.679688 247.679688 Z M 230.71875 246.558594 "/>
<path style=" stroke:none;fill-rule:nonzero;fill:rgb(5.098039%,52.156866%,81.568629%);fill-opacity:1;" d="M 249.28125 146.078125 L 250.078125 146.078125 L 249.761719 146.71875 L 248.480469 148.480469 L 248 148.320312 L 248.480469 147.359375 L 248.800781 147.359375 L 248.640625 146.878906 L 249.121094 146.558594 Z M 249.28125 146.078125 "/>
<path style=" stroke:none;fill-rule:nonzero;fill:rgb(5.098039%,52.549022%,81.568629%);fill-opacity:1;" d="M 253.761719 140.320312 L 254.558594 140.320312 L 254.238281 140.960938 L 253.121094 142.558594 L 252.640625 142.558594 L 252.800781 141.921875 L 252.960938 141.601562 L 253.28125 141.601562 L 253.28125 140.960938 L 253.761719 140.640625 Z M 253.761719 140.320312 "/>
<path style=" stroke:none;fill-rule:nonzero;fill:rgb(5.490196%,52.941179%,81.960785%);fill-opacity:1;" d="M 218.398438 191.039062 L 218.71875 191.039062 L 218.398438 191.839844 L 217.441406 193.441406 L 216.960938 193.441406 L 217.28125 192.640625 L 217.441406 192 L 217.761719 191.839844 L 218.078125 191.199219 Z M 218.398438 191.039062 "/>
<path style=" stroke:none;fill-rule:nonzero;fill:rgb(5.098039%,52.549022%,81.960785%);fill-opacity:1;" d="M 271.679688 118.078125 L 272.160156 118.238281 L 271.839844 119.039062 L 270.878906 120.160156 L 270.558594 120.160156 L 270.558594 119.519531 L 270.878906 119.199219 L 271.039062 118.558594 L 271.679688 118.238281 Z M 271.679688 118.078125 "/>
<path style=" stroke:none;fill-rule:nonzero;fill:rgb(5.098039%,52.549022%,81.960785%);fill-opacity:1;" d="M 226.078125 178.71875 L 226.398438 178.71875 L 226.238281 179.359375 L 225.28125 180.800781 L 224.960938 180.640625 L 225.121094 179.839844 L 225.441406 179.679688 L 225.28125 179.359375 L 225.761719 179.359375 Z M 226.078125 178.71875 "/>
<path style=" stroke:none;fill-rule:nonzero;fill:rgb(6.27451%,54.509807%,83.137256%);fill-opacity:1;" d="M 128.320312 82.878906 L 128.960938 83.039062 L 128 84.160156 L 127.679688 84.160156 L 127.519531 84.800781 L 126.71875 85.28125 L 127.039062 84.480469 Z M 128.320312 82.878906 "/>
<path style=" stroke:none;fill-rule:nonzero;fill:rgb(5.490196%,52.941179%,81.960785%);fill-opacity:1;" d="M 143.359375 68.800781 L 143.679688 68.800781 L 143.519531 69.441406 L 142.238281 70.558594 L 141.761719 70.398438 L 142.238281 69.601562 Z M 143.359375 68.800781 "/>
<path style=" stroke:none;fill-rule:nonzero;fill:rgb(5.098039%,52.156866%,81.568629%);fill-opacity:1;" d="M 37.921875 176 L 39.519531 176 L 40.320312 176.480469 L 39.679688 176.640625 L 37.28125 176.320312 Z M 37.921875 176 "/>
<path style=" stroke:none;fill-rule:nonzero;fill:rgb(5.098039%,51.764709%,81.568629%);fill-opacity:1;" d="M 281.28125 106.238281 L 281.921875 106.398438 L 281.601562 107.199219 L 280.800781 107.839844 L 280.640625 107.039062 Z M 281.28125 106.238281 "/>
<path style=" stroke:none;fill-rule:nonzero;fill:rgb(5.490196%,53.333336%,82.352942%);fill-opacity:1;" d="M 284.480469 102.558594 L 285.121094 102.558594 L 284.960938 103.199219 L 283.519531 104.800781 L 283.359375 104.160156 L 283.839844 104.160156 L 283.839844 103.519531 L 284.160156 103.199219 L 284.640625 103.199219 Z M 284.480469 102.558594 "/>
<path style=" stroke:none;fill-rule:nonzero;fill:rgb(5.490196%,53.333336%,82.352942%);fill-opacity:1;" d="M 218.398438 233.601562 L 219.199219 233.921875 L 220.160156 234.71875 L 220.480469 235.519531 L 219.839844 235.199219 L 219.039062 234.398438 Z M 218.398438 233.601562 "/>
<path style=" stroke:none;fill-rule:nonzero;fill:rgb(5.882353%,54.11765%,83.137256%);fill-opacity:1;" d="M 104.800781 212.160156 L 105.28125 212.320312 L 105.761719 213.121094 L 106.238281 213.601562 L 106.238281 213.921875 L 106.558594 213.921875 L 106.398438 214.558594 L 104.960938 212.800781 Z M 104.800781 212.160156 "/>
<path style=" stroke:none;fill-rule:nonzero;fill:rgb(4.313726%,50.196081%,80.392158%);fill-opacity:1;" d="M 40.800781 176.640625 L 42.558594 176.640625 L 42.558594 176.800781 L 43.519531 176.960938 L 43.199219 177.28125 L 41.601562 177.28125 L 41.441406 176.960938 Z M 40.800781 176.640625 "/>
<path style=" stroke:none;fill-rule:nonzero;fill:rgb(5.098039%,51.764709%,81.568629%);fill-opacity:1;" d="M 46.71875 178.078125 L 48 178.078125 L 47.839844 178.558594 L 48 178.878906 L 46.71875 178.71875 L 46.558594 178.238281 Z M 46.71875 178.078125 "/>
<path style=" stroke:none;fill-rule:nonzero;fill:rgb(5.098039%,52.549022%,81.568629%);fill-opacity:1;" d="M 48.800781 178.71875 L 50.558594 179.039062 L 50.398438 179.519531 L 49.121094 179.359375 L 48.640625 179.199219 Z M 48.800781 178.71875 "/>
<path style=" stroke:none;fill-rule:nonzero;fill:rgb(9.803922%,62.7451%,88.627452%);fill-opacity:1;" d="M 42.078125 176.800781 L 42.398438 177.121094 L 43.519531 177.121094 L 43.679688 177.441406 L 43.359375 177.761719 L 42.078125 177.601562 L 41.761719 177.28125 Z M 42.078125 176.800781 "/>
<path style=" stroke:none;fill-rule:nonzero;fill:rgb(5.490196%,53.333336%,82.352942%);fill-opacity:1;" d="M 264.640625 89.441406 L 265.761719 89.441406 L 265.441406 89.761719 L 263.839844 90.078125 L 263.199219 89.921875 Z M 264.640625 89.441406 "/>
<path style=" stroke:none;fill-rule:nonzero;fill:rgb(5.490196%,52.941179%,81.960785%);fill-opacity:1;" d="M 243.199219 154.71875 L 243.519531 154.71875 L 243.199219 155.359375 L 242.398438 156.160156 L 242.238281 155.839844 L 242.398438 155.359375 L 242.71875 155.359375 L 242.71875 155.039062 L 243.199219 155.039062 Z M 243.199219 154.71875 "/>
<path style=" stroke:none;fill-rule:nonzero;fill:rgb(5.490196%,53.333336%,82.352942%);fill-opacity:1;" d="M 251.679688 143.679688 L 252 143.679688 L 251.679688 144.320312 L 251.039062 145.121094 L 250.71875 145.121094 L 250.71875 144.480469 L 251.199219 144.480469 L 251.359375 143.839844 Z M 251.679688 143.679688 "/>
<path style=" stroke:none;fill-rule:nonzero;fill:rgb(61.960787%,83.92157%,94.509804%);fill-opacity:1;" d="M 22.71875 173.441406 L 24.480469 173.601562 L 24.480469 173.761719 L 22.71875 173.601562 Z M 22.71875 173.441406 "/>
<path style=" stroke:none;fill-rule:nonzero;fill:rgb(90.980393%,95.686275%,98.039216%);fill-opacity:1;" d="M 17.601562 172.480469 L 19.199219 172.640625 L 19.199219 172.800781 L 17.601562 172.640625 Z M 17.601562 172.480469 "/>
<path style=" stroke:none;fill-rule:nonzero;fill:rgb(84.313726%,92.941177%,97.254902%);fill-opacity:1;" d="M 21.761719 173.28125 L 22.71875 173.28125 L 22.71875 173.441406 L 21.761719 173.441406 Z M 21.761719 173.28125 "/>
<path style=" stroke:none;fill-rule:nonzero;fill:rgb(39.607844%,74.901962%,92.156863%);fill-opacity:1;" d="M 20.800781 173.121094 L 21.761719 173.121094 L 21.761719 173.28125 L 20.800781 173.28125 Z M 20.800781 173.121094 "/>
<path style=" stroke:none;fill-rule:nonzero;fill:rgb(99.215686%,99.215686%,99.215686%);fill-opacity:1;" d="M 20 172.960938 L 20.800781 172.960938 L 20.800781 173.121094 L 20 173.121094 Z M 20 172.960938 "/>
<path style=" stroke:none;fill-rule:nonzero;fill:rgb(99.215686%,99.215686%,99.215686%);fill-opacity:1;" d="M 19.359375 172.800781 L 20 172.960938 Z M 19.359375 172.800781 "/>
</g>
</svg>
