<?xml version="1.0" standalone="no"?>
<!DOCTYPE svg PUBLIC "-//W3C//DTD SVG 20010904//EN"
 "http://www.w3.org/TR/2001/REC-SVG-20010904/DTD/svg10.dtd">
<svg version="1.0" xmlns="http://www.w3.org/2000/svg"
 width="920.000000pt" height="205.000000pt" viewBox="0 0 920.000000 205.000000"
 preserveAspectRatio="xMidYMid meet">

<g transform="translate(0.000000,205.000000) scale(0.100000,-0.100000)"
fill="#000000" stroke="none">
<path d="M5816 1761 c-3 -5 -16 -7 -28 -3 -17 4 -20 2 -15 -12 5 -11 3 -15 -5
-10 -8 5 -9 2 -5 -10 4 -9 3 -15 -2 -12 -5 3 -14 -1 -20 -8 -7 -8 -8 -17 -3
-20 5 -3 28 15 52 39 24 25 41 45 38 45 -4 0 -9 -4 -12 -9z"/>
<path d="M5671 1736 c-25 -6 -46 -16 -48 -22 -4 -13 36 -12 57 1 24 15 40 14
40 -1 0 -8 -5 -14 -11 -14 -8 0 -7 -5 1 -16 11 -12 10 -18 -3 -30 -9 -8 -15
-11 -12 -8 6 9 -14 34 -27 34 -6 0 -6 -6 1 -14 8 -9 8 -21 2 -39 -5 -14 -8
-27 -5 -29 2 -3 -2 -5 -10 -5 -15 0 -11 21 7 45 5 7 7 15 4 19 -4 3 -9 -2 -13
-11 -5 -13 -9 -14 -20 -5 -8 6 -14 18 -14 26 0 8 -4 12 -9 8 -6 -3 -8 6 -5 21
4 21 2 25 -11 20 -9 -3 -21 -6 -26 -6 -5 0 -9 -8 -9 -17 0 -11 -3 -14 -8 -7
-8 13 -72 -1 -72 -16 0 -12 16 -13 23 -2 2 4 2 1 0 -6 -1 -8 3 -12 9 -9 7 2
12 10 11 16 -4 16 18 13 38 -5 17 -15 18 -15 13 10 -2 14 0 26 4 26 11 0 10
-60 -1 -77 -10 -16 5 -17 20 -2 6 6 9 18 5 27 -3 9 3 7 17 -7 16 -16 19 -26
12 -35 -7 -9 -7 -16 2 -25 9 -10 8 -11 -8 -5 -17 7 -18 6 -7 -8 9 -11 10 -18
2 -23 -5 -3 -10 -3 -10 2 0 10 -20 -19 -20 -29 0 -19 20 -4 58 43 23 28 39 56
35 63 -3 6 -2 8 2 3 5 -4 19 3 32 15 17 16 20 24 11 35 -8 10 -7 18 4 31 39
46 26 52 -61 28z"/>
<path d="M5681 1707 c-8 -11 -6 -18 9 -32 12 -11 20 -13 20 -6 0 6 -7 14 -16
18 -12 4 -13 7 -3 14 8 4 11 11 8 14 -4 3 -11 -1 -18 -8z"/>
<path d="M5624 1681 c9 -10 13 -21 9 -26 -5 -4 -2 -6 6 -3 14 4 25 37 13 39
-4 0 -15 2 -25 4 -17 3 -17 2 -3 -14z"/>
<path d="M5420 1653 c-19 -8 -38 -19 -41 -25 -3 -5 -9 -9 -13 -8 -4 1 -20 -5
-36 -12 -21 -9 -30 -20 -30 -35 0 -13 6 -23 13 -23 9 0 8 -3 -2 -9 -9 -6 -10
-11 -2 -15 6 -4 9 -11 7 -15 -10 -15 15 -82 27 -75 9 5 9 4 0 -6 -7 -7 -8 -19
-4 -29 4 -9 20 -54 36 -101 28 -86 76 -184 98 -197 7 -4 4 6 -7 22 -16 24 -28
58 -47 135 -2 8 3 14 11 15 8 0 16 3 18 8 5 16 1 27 -9 27 -8 0 -7 -6 2 -17
12 -16 11 -16 -7 0 -16 15 -17 19 -4 27 9 6 16 6 18 0 7 -20 20 -9 55 45 21
30 32 57 27 60 -6 3 -10 1 -10 -6 0 -8 -4 -8 -16 2 -14 11 -15 10 -12 -7 1
-10 7 -22 11 -25 4 -3 1 -12 -8 -19 -14 -12 -15 -10 -11 14 3 19 1 26 -7 23
-13 -5 -13 -9 -2 -44 4 -14 2 -23 -4 -23 -6 0 -10 4 -8 9 1 5 -2 9 -8 9 -5 0
-9 -5 -7 -11 2 -6 -6 -3 -17 7 -25 23 -25 22 -7 29 11 4 13 1 9 -11 -6 -14 -4
-15 9 -4 17 14 18 28 3 52 -5 8 -10 21 -12 29 -1 8 -7 17 -13 21 -8 5 -7 9 5
13 9 4 13 3 10 -2 -3 -5 -1 -12 4 -15 14 -9 21 20 8 33 -6 6 -12 25 -13 43 -2
23 0 28 6 18 11 -17 11 -16 14 23 2 17 -1 26 -8 24 -6 -3 -10 -10 -8 -16 1 -7
-2 -10 -7 -7 -5 4 -12 0 -14 -6 -4 -10 -6 -9 -6 1 -1 9 -5 10 -14 5 -7 -5 -5
-2 5 8 10 9 17 22 15 30 -2 7 -2 9 1 5 2 -5 14 0 25 10 19 16 20 16 8 1 -16
-21 -9 -23 18 -6 16 10 17 14 6 25 -8 7 -15 13 -17 12 -2 0 -19 -7 -38 -16z"/>
<path d="M5514 1643 c-10 -10 -25 -18 -33 -18 -10 0 -15 -11 -15 -31 -1 -17
-8 -39 -16 -49 -16 -19 -15 -21 3 -44 17 -20 17 -39 1 -52 -10 -8 -11 -15 -3
-25 8 -10 15 -8 32 9 12 12 21 30 21 39 -1 9 2 16 6 15 5 -1 8 3 8 8 0 6 -4 9
-10 7 -5 -1 -6 3 -2 10 13 20 12 57 0 61 -7 3 -12 -9 -14 -29 -3 -54 -5 -63
-13 -58 -5 2 -6 12 -3 22 5 14 4 15 -5 2 -9 -12 -11 -12 -11 -1 0 8 8 20 18
27 11 9 13 13 4 14 -9 0 -10 5 -3 17 6 11 6 24 -1 36 -8 15 -7 18 4 14 7 -2
12 -9 11 -14 -1 -5 18 -22 43 -38 43 -27 57 -42 31 -32 -8 3 -14 -1 -14 -9 0
-8 4 -14 9 -14 4 0 8 -5 8 -12 0 -9 -3 -9 -12 0 -21 21 -32 13 -12 -10 13 -16
14 -19 2 -10 -13 11 -18 11 -24 0 -30 -48 10 -61 46 -15 17 21 19 31 10 41 -8
10 -8 16 0 21 6 3 7 12 3 18 -4 7 -8 19 -10 27 -1 13 0 13 10 0 7 -8 19 -16
27 -18 12 -3 12 -1 3 9 -6 6 -9 18 -5 27 4 11 1 14 -11 9 -21 -8 -40 16 -25
31 7 7 9 12 4 12 -10 0 -37 -27 -37 -37 -1 -13 -9 -17 -9 -4 0 6 7 23 16 36
14 21 14 25 2 25 -8 0 -23 -8 -34 -17z m26 3 c0 -2 -8 -10 -17 -17 -16 -13
-17 -12 -4 4 13 16 21 21 21 13z m9 -56 c13 19 25 6 14 -14 -8 -14 -11 -14
-31 0 -12 8 -22 20 -22 26 0 7 7 3 15 -8 12 -16 16 -17 24 -4z m-73 -148 c-18
-16 -18 -16 -6 6 6 13 14 21 18 18 3 -4 -2 -14 -12 -24z"/>
<path d="M5605 1620 c-3 -5 -1 -10 4 -10 6 0 11 5 11 10 0 6 -2 10 -4 10 -3 0
-8 -4 -11 -10z"/>
<path d="M5525 1535 c0 -12 5 -21 11 -18 6 2 11 10 11 18 0 8 -5 16 -11 18 -6
3 -11 -6 -11 -18z"/>
<path d="M4470 790 c0 -314 0 -573 0 -577 0 -5 28 -8 63 -8 l62 0 3 578 2 577
-65 0 -65 0 0 -570z"/>
<path d="M5742 783 l3 -578 63 -3 62 -3 0 128 0 128 79 79 78 78 139 -206 138
-206 73 0 c43 0 73 4 73 10 0 6 -70 113 -155 239 -85 126 -157 235 -160 243
-4 10 46 66 142 161 l148 147 -95 0 -95 -1 -178 -174 c-97 -96 -179 -175 -182
-175 -3 0 -5 160 -5 355 l0 355 -65 0 -65 0 2 -577z"/>
<path d="M142 798 l3 -373 28 -57 c35 -71 101 -130 176 -159 46 -17 72 -20
146 -17 76 3 98 8 144 33 110 60 171 166 171 298 l0 72 -63 0 -62 0 -5 -77
c-5 -65 -11 -85 -35 -119 -81 -115 -266 -113 -342 3 l-28 41 -3 219 -3 218
270 0 271 0 0 60 0 60 -270 0 -270 0 0 85 0 85 -65 0 -66 0 3 -372z"/>
<path d="M1270 1011 c-40 -12 -83 -37 -112 -65 l-28 -25 0 39 0 40 -65 0 -65
0 0 -400 0 -400 64 0 65 0 3 278 3 279 30 48 c39 62 97 95 171 95 64 0 100
-13 137 -48 43 -40 58 -76 64 -153 l6 -69 65 0 65 0 -6 81 c-15 196 -128 310
-305 308 -37 0 -78 -4 -92 -8z"/>
<path d="M2035 995 c-84 -35 -134 -74 -180 -141 -60 -87 -78 -155 -73 -272 3
-83 8 -107 35 -164 39 -84 113 -160 191 -196 46 -22 75 -27 149 -30 81 -3 98
-1 147 21 30 14 75 44 100 67 l45 42 3 -59 3 -58 63 -3 62 -3 0 401 0 400 -65
0 -65 0 0 -56 0 -56 -50 46 c-98 87 -242 112 -365 61z m253 -124 c52 -27 107
-87 134 -146 32 -71 32 -181 -2 -249 -67 -139 -216 -201 -342 -144 -63 29
-110 75 -141 137 -18 38 -22 63 -22 136 0 78 4 97 27 141 33 63 97 120 158
139 56 18 138 12 188 -14z"/>
<path d="M3783 1006 c-66 -21 -124 -60 -177 -115 -190 -204 -126 -547 124
-665 61 -29 72 -31 180 -31 98 0 122 3 163 22 91 42 155 107 192 196 l15 37
-68 0 -68 0 -31 -44 c-84 -119 -275 -133 -394 -28 -39 34 -77 104 -86 157 l-6
35 338 0 338 0 -7 60 c-19 165 -108 295 -244 358 -69 31 -201 40 -269 18z
m204 -121 c59 -25 101 -62 133 -118 16 -29 30 -58 30 -64 0 -10 -58 -13 -255
-13 -197 0 -255 3 -255 13 0 6 14 35 30 64 50 87 126 132 223 133 32 0 74 -7
94 -15z"/>
<path d="M5053 1006 c-160 -52 -270 -197 -280 -371 -4 -50 -1 -103 6 -131 31
-124 117 -230 228 -282 52 -24 70 -27 163 -27 93 0 111 3 163 27 111 52 197
158 228 282 7 28 10 81 6 131 -9 152 -94 283 -225 347 -56 28 -77 33 -156 35
-57 2 -107 -2 -133 -11z m222 -130 c58 -26 109 -80 139 -145 16 -35 21 -66 21
-131 0 -73 -4 -92 -27 -136 -32 -62 -107 -130 -157 -144 -48 -13 -115 -13
-163 2 -56 17 -131 87 -159 150 -32 71 -33 191 -2 259 47 104 140 169 243 169
37 0 72 -8 105 -24z"/>
<path d="M6789 1005 c-93 -34 -144 -72 -202 -147 -82 -110 -102 -305 -44 -431
71 -155 199 -239 360 -238 94 0 174 32 233 92 l39 40 5 -58 5 -58 63 -3 62 -3
0 401 0 400 -65 0 -65 0 0 -56 0 -56 -50 46 c-67 59 -140 86 -233 85 -40 0
-88 -6 -108 -14z m229 -134 c52 -27 107 -87 134 -146 31 -68 32 -180 1 -246
-62 -136 -216 -203 -341 -149 -67 29 -135 103 -158 172 -24 72 -16 176 19 244
30 60 92 117 151 138 52 20 143 13 194 -13z"/>
<path d="M2744 908 c19 -51 81 -223 139 -383 58 -159 109 -298 112 -308 6 -14
20 -17 75 -17 l68 0 16 42 c9 24 74 203 145 398 l129 355 -65 3 c-36 2 -67 1
-70 -2 -4 -4 -54 -145 -159 -449 -32 -92 -61 -167 -64 -167 -3 0 -45 116 -94
258 -49 141 -98 281 -108 310 l-19 52 -70 0 -69 0 34 -92z"/>
<path d="M7725 593 c-46 -24 -76 -54 -96 -98 -21 -45 -25 -129 -8 -172 12 -34
64 -90 101 -109 40 -21 131 -18 178 6 34 18 90 81 90 102 0 5 -16 8 -35 8 -24
0 -37 -6 -45 -20 -15 -28 -62 -50 -109 -50 -78 0 -143 89 -127 176 9 43 59 99
99 110 43 10 94 -4 124 -36 20 -21 37 -30 60 -30 18 0 33 3 33 7 0 22 -58 85
-94 103 -51 24 -128 26 -171 3z"/>
<path d="M8151 588 c-142 -70 -143 -296 -1 -368 43 -22 122 -26 167 -9 100 38
152 180 104 284 -47 102 -168 144 -270 93z m160 -61 c20 -14 41 -40 53 -69 26
-63 16 -110 -34 -160 -33 -33 -44 -38 -85 -38 -81 0 -135 58 -135 146 0 113
112 181 201 121z"/>
<path d="M8627 590 c-30 -24 -37 -25 -37 -5 0 10 -10 15 -30 15 l-30 0 0 -200
0 -200 30 0 30 0 0 130 c0 179 19 220 102 220 73 -1 88 -38 88 -216 l0 -134
30 0 30 0 0 135 c0 178 18 215 102 215 73 -1 88 -38 88 -216 l0 -134 30 0 30
0 0 150 c0 132 -3 156 -21 191 -40 79 -164 94 -229 29 -19 -19 -23 -20 -33 -7
-41 50 -133 64 -180 27z"/>
<path d="M7430 250 l0 -40 40 0 40 0 0 40 0 40 -40 0 -40 0 0 -40z"/>
</g>
</svg>
