<?xml version="1.0" encoding="UTF-8"?>
<svg xmlns="http://www.w3.org/2000/svg" xmlns:xlink="http://www.w3.org/1999/xlink" width="px" height="px" viewBox="0 0 320 320" version="1.1">
<g id="surface1">
<path style=" stroke:none;fill-rule:nonzero;fill:rgb(18.039216%,89.411765%,64.313728%);fill-opacity:1;" d="M 163.4375 78.515625 L 165.46875 78.671875 L 166.40625 78.671875 L 167.03125 78.828125 L 168.28125 78.828125 L 171.5625 79.140625 L 172.5 79.453125 L 172.96875 79.765625 L 174.21875 79.609375 L 175.9375 80.234375 L 178.90625 80.703125 L 182.65625 81.796875 L 185.9375 82.890625 L 189.21875 84.140625 L 192.96875 85.703125 L 197.96875 88.203125 L 201.40625 90.234375 L 204.53125 92.265625 L 208.28125 95.078125 L 209.84375 96.328125 L 211.5625 97.734375 L 213.59375 99.609375 L 215.15625 101.015625 L 217.96875 103.828125 L 219.0625 105.078125 L 220.78125 106.953125 L 222.8125 109.609375 L 224.375 111.640625 L 225.46875 113.203125 L 227.8125 116.796875 L 228.75 118.515625 L 230.3125 121.484375 L 231.5625 123.984375 L 233.4375 128.203125 L 234.0625 129.921875 L 234.84375 131.953125 L 236.25 136.640625 L 237.1875 140.703125 L 237.65625 142.578125 L 238.75 149.453125 L 239.0625 152.734375 L 239.0625 162.265625 L 238.59375 167.109375 L 238.125 169.765625 L 237.96875 170.546875 L 237.65625 173.203125 L 236.5625 177.265625 L 235.9375 179.921875 L 234.0625 185.390625 L 232.96875 188.359375 L 231.71875 191.171875 L 230.46875 193.671875 L 228.75 196.953125 L 228.125 197.890625 L 227.5 199.140625 L 227.03125 199.609375 L 226.40625 200.703125 L 225.15625 202.734375 L 224.0625 203.984375 L 223.4375 205.078125 L 222.1875 206.484375 L 220.625 208.515625 L 219.375 209.921875 L 218.28125 211.171875 L 216.25 213.203125 L 215.15625 214.453125 L 214.375 214.921875 L 213.75 215.859375 L 212.8125 216.484375 L 212.1875 217.265625 L 207.8125 220.703125 L 206.40625 221.796875 L 204.84375 222.890625 L 202.65625 224.296875 L 200.625 225.546875 L 198.28125 226.953125 L 195.78125 228.203125 L 194.375 228.828125 L 193.59375 229.296875 L 189.53125 231.171875 L 186.40625 232.265625 L 181.71875 233.828125 L 176.5625 235.078125 L 169.21875 236.328125 L 166.09375 236.640625 L 162.5 236.796875 L 157.65625 236.796875 L 153.4375 236.640625 L 148.75 236.171875 L 141.875 234.921875 L 136.5625 233.515625 L 131.5625 231.796875 L 128.125 230.390625 L 125.3125 229.140625 L 122.8125 227.890625 L 119.6875 226.171875 L 117.34375 224.765625 L 115.15625 223.359375 L 113.4375 222.109375 L 111.5625 220.703125 L 110.15625 219.609375 L 108.4375 218.203125 L 106.40625 216.328125 L 105.15625 215.234375 L 103.59375 213.828125 L 102.1875 212.421875 L 101.09375 211.171875 L 99.84375 209.765625 L 99.84375 209.453125 L 99.53125 209.453125 L 98.125 207.734375 L 95.625 204.609375 L 93.90625 202.109375 L 92.96875 200.703125 L 90.9375 197.421875 L 89.0625 193.984375 L 86.875 189.609375 L 85.46875 186.015625 L 84.21875 182.265625 L 83.4375 179.765625 L 82.34375 176.015625 L 81.875 173.046875 L 81.09375 169.140625 L 80.625 164.140625 L 80.3125 160.078125 L 80.3125 156.796875 L 80.46875 152.109375 L 80.9375 146.796875 L 81.71875 142.421875 L 82.65625 138.203125 L 84.0625 133.359375 L 85.46875 129.296875 L 87.03125 125.703125 L 89.0625 121.484375 L 90.3125 118.984375 L 92.03125 116.171875 L 93.125 114.453125 L 94.21875 112.890625 L 95.46875 111.015625 L 97.5 108.359375 L 98.59375 107.109375 L 100.3125 105.078125 L 101.71875 103.515625 L 102.34375 102.734375 L 103.90625 101.171875 L 104.21875 101.171875 L 104.53125 100.546875 L 106.40625 98.828125 L 108.125 97.421875 L 109.84375 95.859375 L 112.96875 93.515625 L 117.1875 90.703125 L 120 88.984375 L 121.71875 88.046875 L 126.09375 85.859375 L 128.75 84.609375 L 131.40625 83.671875 L 132.8125 83.046875 L 136.71875 81.796875 L 139.375 81.171875 L 141.09375 80.546875 L 143.28125 80.234375 L 143.90625 80.078125 L 145 79.765625 L 146.5625 79.609375 L 147.03125 79.296875 L 148.125 79.140625 L 151.09375 78.984375 L 152.65625 78.828125 L 154.375 78.671875 L 156.71875 78.671875 L 157.8125 78.984375 L 158.90625 78.984375 L 161.25 78.671875 L 162.8125 78.671875 Z M 163.4375 78.515625 "/>
<path style=" stroke:none;fill-rule:nonzero;fill:rgb(0%,0%,0%);fill-opacity:1;" d="M 155.9375 120.234375 L 163.4375 120.234375 L 166.25 120.546875 L 169.6875 120.703125 L 172.03125 121.171875 L 174.375 121.796875 L 177.65625 122.421875 L 179.6875 123.203125 L 182.03125 123.828125 L 183.4375 124.453125 L 185.9375 125.390625 L 187.1875 126.015625 L 188.75 126.640625 L 191.25 127.890625 L 192.03125 128.515625 L 193.59375 129.140625 L 194.375 130.078125 L 195.78125 130.546875 L 196.71875 131.171875 L 197.1875 131.640625 L 216.875 131.640625 L 218.125 131.796875 L 217.96875 132.578125 L 216.5625 133.984375 L 215.15625 135.703125 L 212.8125 138.203125 L 212.03125 139.140625 L 211.40625 139.296875 L 211.09375 140.234375 L 210.3125 140.703125 L 210 140.703125 L 210 141.484375 L 209.375 142.109375 L 209.0625 142.109375 L 211.25 144.296875 L 212.8125 146.328125 L 213.125 146.796875 L 213.125 147.265625 L 213.75 147.578125 L 215 149.765625 L 215.78125 151.328125 L 216.875 153.984375 L 217.65625 156.640625 L 218.125 158.203125 L 218.28125 159.453125 L 218.28125 168.359375 L 217.96875 170.234375 L 217.03125 172.734375 L 216.71875 174.296875 L 215.46875 176.953125 L 215 178.046875 L 214.6875 178.203125 L 213.90625 179.765625 L 212.96875 180.859375 L 212.65625 181.640625 L 211.875 182.421875 L 211.09375 183.515625 L 210.15625 184.296875 L 209.84375 184.921875 L 208.90625 185.546875 L 208.59375 185.546875 L 208.28125 186.328125 L 207.34375 186.640625 L 206.875 187.421875 L 205.46875 188.359375 L 204.6875 188.828125 L 203.90625 189.453125 L 201.40625 190.703125 L 197.5 192.109375 L 194.375 192.734375 L 190.78125 193.359375 L 187.8125 193.359375 L 183.4375 192.734375 L 180.625 192.109375 L 176.875 190.703125 L 176.09375 190.390625 L 175.9375 190.078125 L 174.6875 189.609375 L 173.28125 188.671875 L 172.96875 188.359375 L 172.03125 188.046875 L 170.9375 187.109375 L 170.15625 186.328125 L 169.53125 186.015625 L 169.375 185.546875 L 168.90625 185.703125 L 168.125 186.484375 L 166.09375 188.984375 L 164.6875 190.546875 L 163.90625 191.171875 L 163.28125 192.109375 L 162.5 192.734375 L 162.03125 193.515625 L 161.09375 194.140625 L 160.78125 194.921875 L 159.84375 195.546875 L 159.21875 195.234375 L 157.96875 193.984375 L 156.875 192.734375 L 155.625 191.328125 L 154.6875 190.546875 L 154.0625 189.765625 L 153.28125 189.140625 L 152.96875 188.515625 L 152.1875 187.890625 L 151.71875 186.953125 L 150.46875 185.703125 L 150.46875 185.390625 L 150 185.546875 L 149.21875 186.328125 L 147.65625 187.734375 L 146.40625 188.515625 L 144.84375 189.609375 L 143.4375 190.234375 L 142.34375 190.859375 L 140 191.640625 L 138.28125 192.265625 L 133.59375 193.046875 L 132.8125 193.046875 L 132.65625 193.203125 L 131.09375 193.203125 L 130.3125 193.359375 L 129.6875 193.203125 L 129.21875 193.515625 L 128.4375 193.203125 L 127.34375 193.046875 L 124.53125 192.578125 L 122.34375 192.109375 L 118.125 190.703125 L 116.5625 189.765625 L 115.46875 189.296875 L 113.75 188.203125 L 112.8125 187.421875 L 112.03125 186.640625 L 110 185.078125 L 109.21875 184.296875 L 107.8125 182.578125 L 106.875 181.484375 L 105.78125 180.078125 L 104.375 177.734375 L 103.75 176.328125 L 103.125 175.234375 L 101.875 171.484375 L 101.40625 168.359375 L 101.25 167.890625 L 101.09375 166.171875 L 101.09375 161.640625 L 101.5625 158.359375 L 101.875 155.859375 L 103.4375 151.796875 L 104.6875 149.296875 L 105.46875 148.203125 L 106.09375 147.109375 L 106.5625 146.328125 L 107.03125 146.171875 L 107.34375 145.234375 L 108.28125 144.609375 L 108.90625 143.359375 L 109.84375 143.203125 L 109.84375 141.640625 L 107.5 139.140625 L 107.03125 138.671875 L 106.5625 137.890625 L 105.78125 137.265625 L 104.6875 136.015625 L 103.125 134.453125 L 102.96875 133.828125 L 102.1875 133.515625 L 101.71875 132.890625 L 101.5625 131.796875 L 104.0625 131.640625 L 122.1875 131.640625 L 122.8125 131.484375 L 123.75 130.390625 L 125 129.921875 L 126.25 128.984375 L 127.34375 128.515625 L 128.90625 127.578125 L 130 127.109375 L 132.1875 126.015625 L 135.15625 124.765625 L 137.5 123.828125 L 141.25 122.734375 L 142.5 122.265625 L 145.15625 121.796875 L 147.65625 121.171875 L 148.28125 120.859375 L 155.625 120.390625 Z M 155.9375 120.234375 "/>
<path style=" stroke:none;fill-rule:nonzero;fill:rgb(18.039216%,89.411765%,64.313728%);fill-opacity:1;" d="M 129.375 144.140625 L 131.09375 144.140625 L 134.21875 144.453125 L 136.875 145.078125 L 138.90625 146.015625 L 140.46875 146.796875 L 141.25 147.421875 L 142.1875 147.890625 L 142.65625 148.515625 L 143.75 148.984375 L 144.21875 149.921875 L 145 150.234375 L 145.625 151.484375 L 146.40625 151.953125 L 146.71875 153.046875 L 147.5 153.828125 L 148.75 156.328125 L 149.21875 157.421875 L 150 161.484375 L 150.15625 161.796875 L 150.15625 165.546875 L 149.375 169.453125 L 148.75 171.171875 L 147.8125 173.515625 L 147.03125 174.453125 L 146.25 175.703125 L 145.15625 176.953125 L 144.53125 177.890625 L 143.90625 178.203125 L 143.4375 178.828125 L 143.125 178.828125 L 142.96875 179.296875 L 141.875 179.765625 L 141.09375 180.546875 L 140.3125 181.015625 L 139.6875 181.015625 L 139.53125 181.484375 L 135.46875 183.046875 L 133.28125 183.515625 L 127.8125 183.515625 L 124.6875 182.890625 L 124.21875 182.578125 L 122.8125 182.265625 L 121.40625 181.484375 L 120 180.859375 L 118.59375 179.765625 L 117.1875 178.828125 L 116.875 178.203125 L 116.09375 177.890625 L 115.3125 176.640625 L 114.6875 176.328125 L 113.4375 174.140625 L 112.96875 173.828125 L 112.5 172.421875 L 112.03125 171.484375 L 111.5625 171.171875 L 111.25 168.515625 L 110.78125 168.046875 L 110.78125 166.953125 L 110.625 166.328125 L 110.625 163.984375 L 110.46875 163.671875 L 110.15625 163.671875 L 110.3125 163.203125 L 110.625 163.203125 L 110.625 161.484375 L 110.78125 161.015625 L 110.9375 159.765625 L 111.40625 158.046875 L 111.71875 156.484375 L 112.65625 154.921875 L 113.28125 153.359375 L 114.0625 152.734375 L 114.375 151.796875 L 115.15625 151.015625 L 115.78125 150.234375 L 116.875 149.296875 L 117.34375 148.828125 L 117.96875 148.515625 L 118.59375 147.578125 L 119.6875 147.109375 L 120.625 146.484375 L 123.125 145.390625 L 123.59375 145.078125 L 125.9375 144.609375 L 127.34375 144.296875 Z M 129.375 144.140625 "/>
<path style=" stroke:none;fill-rule:nonzero;fill:rgb(18.039216%,89.411765%,64.313728%);fill-opacity:1;" d="M 188.90625 143.984375 L 192.03125 144.296875 L 193.125 144.609375 L 195.78125 145.078125 L 196.5625 145.546875 L 198.4375 146.328125 L 199.6875 147.265625 L 201.09375 147.890625 L 202.34375 148.984375 L 203.28125 150.078125 L 204.0625 150.703125 L 204.6875 151.640625 L 205.3125 152.421875 L 206.5625 154.453125 L 207.03125 154.765625 L 207.1875 155.859375 L 208.28125 158.359375 L 208.4375 158.984375 L 208.59375 161.171875 L 208.75 161.640625 L 208.75 165.859375 L 208.28125 169.453125 L 207.8125 170.078125 L 207.65625 170.859375 L 207.1875 171.796875 L 207.03125 172.578125 L 206.875 173.203125 L 205.9375 173.984375 L 205.46875 175.234375 L 204.84375 175.390625 L 204.6875 176.328125 L 203.90625 176.953125 L 203.125 178.046875 L 202.1875 178.828125 L 201.875 178.828125 L 201.71875 179.296875 L 200.46875 179.921875 L 199.21875 180.859375 L 198.28125 181.328125 L 196.875 182.109375 L 195.15625 182.578125 L 194.0625 183.046875 L 191.71875 183.515625 L 186.40625 183.515625 L 184.0625 183.046875 L 181.25 182.109375 L 179.53125 181.171875 L 177.96875 180.390625 L 177.34375 179.609375 L 176.25 179.140625 L 175.78125 178.359375 L 174.84375 177.890625 L 174.375 176.953125 L 173.4375 176.328125 L 173.28125 175.390625 L 172.65625 175.078125 L 171.71875 173.515625 L 170.625 171.171875 L 169.53125 167.734375 L 169.375 166.796875 L 169.21875 164.140625 L 169.21875 162.421875 L 169.53125 160.078125 L 170.3125 157.421875 L 170.9375 155.703125 L 172.34375 153.046875 L 173.75 151.328125 L 174.84375 150.078125 L 175.625 149.296875 L 177.03125 148.046875 L 178.75 146.953125 L 181.25 145.703125 L 182.34375 145.078125 L 185.9375 144.296875 L 188.59375 144.140625 Z M 188.90625 143.984375 "/>
<path style=" stroke:none;fill-rule:nonzero;fill:rgb(18.039216%,89.411765%,64.313728%);fill-opacity:1;" d="M 157.8125 129.765625 L 161.875 129.765625 L 164.21875 130.078125 L 169.53125 130.390625 L 170.625 130.546875 L 170.78125 130.859375 L 172.65625 131.171875 L 173.4375 131.640625 L 175.46875 131.796875 L 176.25 132.109375 L 177.65625 132.734375 L 180.3125 133.671875 L 181.71875 134.140625 L 181.71875 134.453125 L 179.21875 135.234375 L 177.96875 136.015625 L 176.25 136.953125 L 175 137.734375 L 173.4375 138.671875 L 172.96875 139.140625 L 172.1875 139.453125 L 171.25 140.546875 L 170.78125 140.703125 L 169.84375 141.796875 L 169.21875 142.109375 L 168.59375 143.046875 L 167.8125 143.828125 L 167.1875 144.609375 L 166.5625 144.921875 L 166.40625 145.546875 L 165.3125 146.328125 L 165 147.421875 L 164.53125 147.734375 L 164.0625 148.515625 L 163.75 148.515625 L 163.59375 149.921875 L 162.96875 150.078125 L 162.8125 150.703125 L 162.1875 151.953125 L 162.1875 152.734375 L 161.5625 153.359375 L 160.9375 155.234375 L 160.3125 158.046875 L 159.84375 160.546875 L 159.375 160.390625 L 159.0625 157.578125 L 158.125 154.453125 L 157.8125 153.828125 L 157.5 152.421875 L 156.40625 150.546875 L 155.9375 149.453125 L 154.84375 148.203125 L 154.6875 147.265625 L 153.90625 146.484375 L 153.28125 145.703125 L 153.125 144.921875 L 152.34375 144.765625 L 151.875 143.984375 L 151.875 143.515625 L 151.09375 143.359375 L 150.625 142.578125 L 150.15625 142.109375 L 149.375 141.640625 L 148.90625 140.703125 L 147.96875 140.390625 L 147.96875 139.921875 L 147.1875 139.609375 L 145.15625 138.203125 L 145 137.890625 L 143.90625 137.421875 L 143.125 136.796875 L 141.875 136.171875 L 141.25 136.171875 L 141.09375 135.546875 L 139.375 135.078125 L 137.8125 134.453125 L 138.28125 133.984375 L 142.1875 132.578125 L 142.8125 131.953125 L 143.125 132.265625 L 143.90625 131.796875 L 146.40625 131.484375 L 148.4375 130.859375 L 148.90625 130.546875 L 150.15625 130.390625 L 155.9375 130.078125 Z M 157.8125 129.765625 "/>
<path style=" stroke:none;fill-rule:nonzero;fill:rgb(0%,0%,0%);fill-opacity:1;" d="M 129.6875 153.046875 L 132.1875 153.359375 L 132.8125 153.671875 L 133.90625 153.828125 L 134.0625 154.140625 L 135.46875 154.453125 L 136.25 155.234375 L 137.03125 155.859375 L 137.8125 156.328125 L 138.75 157.578125 L 139.53125 158.671875 L 140 159.921875 L 140.3125 160.546875 L 140.3125 161.328125 L 140.78125 161.484375 L 140.9375 161.953125 L 140.9375 165.390625 L 140.625 166.484375 L 140 167.734375 L 139.375 169.453125 L 137.65625 171.328125 L 136.875 172.109375 L 134.53125 173.515625 L 133.75 173.828125 L 131.40625 174.140625 L 129.21875 174.140625 L 126.5625 173.671875 L 124.21875 172.265625 L 122.5 170.703125 L 121.5625 169.765625 L 121.09375 168.671875 L 120.3125 167.421875 L 119.84375 166.171875 L 119.6875 165.546875 L 119.6875 162.109375 L 120.3125 160.234375 L 121.25 158.828125 L 122.03125 157.421875 L 122.8125 156.640625 L 123.28125 155.859375 L 124.375 155.703125 L 124.6875 155.078125 L 125.625 154.453125 L 127.03125 154.140625 L 127.1875 153.828125 L 128.4375 153.515625 L 128.90625 153.203125 Z M 129.6875 153.046875 "/>
<path style=" stroke:none;fill-rule:nonzero;fill:rgb(0%,0%,0%);fill-opacity:1;" d="M 188.59375 153.046875 L 190.15625 153.359375 L 190.46875 153.359375 L 191.25 153.515625 L 192.5 153.828125 L 192.5 154.296875 L 193.59375 154.296875 L 196.25 156.171875 L 197.03125 157.109375 L 198.28125 158.828125 L 198.75 160.078125 L 199.0625 160.703125 L 199.0625 161.484375 L 199.53125 161.640625 L 199.6875 162.734375 L 199.6875 165.390625 L 199.375 165.859375 L 199.375 166.328125 L 198.75 167.578125 L 198.4375 167.578125 L 198.4375 168.828125 L 197.8125 169.609375 L 197.1875 170.234375 L 196.875 171.015625 L 195.9375 171.640625 L 195.625 171.640625 L 195.46875 172.265625 L 193.90625 173.046875 L 192.8125 173.671875 L 190.15625 174.140625 L 187.8125 174.140625 L 184.84375 173.671875 L 183.90625 172.890625 L 182.65625 172.109375 L 180.625 170.078125 L 179.53125 168.203125 L 179.0625 167.890625 L 178.75 164.609375 L 178.75 162.734375 L 179.0625 160.078125 L 179.6875 159.765625 L 179.84375 158.828125 L 180 158.515625 L 180.3125 158.515625 L 180.46875 157.734375 L 181.25 156.953125 L 181.5625 156.953125 L 181.875 155.859375 L 182.96875 155.703125 L 183.28125 154.921875 L 183.59375 154.921875 L 183.59375 154.609375 L 184.84375 154.296875 L 185.78125 154.296875 L 185.9375 153.828125 Z M 188.59375 153.046875 "/>
</g>
</svg>
