<?xml version="1.0" standalone="no"?>
<!DOCTYPE svg PUBLIC "-//W3C//DTD SVG 20010904//EN"
 "http://www.w3.org/TR/2001/REC-SVG-20010904/DTD/svg10.dtd">
<svg version="1.0" xmlns="http://www.w3.org/2000/svg"
 width="226.000000pt" height="56.000000pt" viewBox="0 0 226.000000 56.000000"
 preserveAspectRatio="xMidYMid meet">

<g transform="translate(0.000000,56.000000) scale(0.100000,-0.100000)"
fill="#000000" stroke="none">
<path d="M814 405 c-4 -9 -2 -21 4 -27 15 -15 44 -1 40 19 -4 23 -36 29 -44 8z"/>
<path d="M1674 405 c-4 -9 -2 -21 4 -27 15 -15 44 -1 40 19 -4 23 -36 29 -44
8z"/>
<path d="M550 395 c0 -10 10 -15 30 -15 l30 0 0 -100 c0 -93 1 -100 20 -100
18 0 20 8 22 98 l3 97 33 3 c20 2 32 9 32 18 0 11 -18 14 -85 14 -69 0 -85 -3
-85 -15z"/>
<path d="M1422 376 c4 -32 3 -33 -21 -25 -61 24 -127 -36 -114 -104 9 -46 45
-66 119 -65 l64 1 0 113 0 114 -26 0 c-24 0 -26 -3 -22 -34z m-4 -105 c4 -28
-14 -51 -42 -51 -47 0 -63 57 -24 84 19 13 25 14 43 2 11 -7 21 -23 23 -35z"/>
<path d="M235 375 c-22 -8 -55 -15 -73 -15 -28 0 -31 -2 -23 -18 6 -11 6 -24
0 -33 -15 -25 -10 -75 12 -103 16 -20 29 -26 59 -26 21 0 42 5 45 11 5 7 13 5
25 -6 11 -10 20 -12 24 -6 4 6 27 8 56 4 44 -5 51 -3 74 22 28 30 35 82 14
103 -10 10 -10 17 0 32 11 18 10 20 -20 20 -18 0 -51 7 -73 15 -22 8 -49 14
-60 14 -11 0 -38 -6 -60 -14z m92 -21 l23 -6 -25 -20 c-14 -11 -25 -27 -25
-36 0 -11 -8 -5 -20 16 -11 17 -25 32 -32 33 -7 1 -2 5 12 9 33 10 41 11 67 4z
m-75 -58 c12 -17 9 -61 -4 -74 -30 -30 -88 -2 -88 43 0 45 68 68 92 31z m156
8 c26 -18 29 -56 6 -78 -40 -40 -105 4 -85 57 8 22 18 29 51 36 3 0 16 -6 28
-15z"/>
<path d="M184 275 c-4 -9 0 -23 9 -32 21 -21 49 -9 45 19 -4 28 -45 38 -54 13z"/>
<path d="M354 275 c-8 -21 2 -45 19 -45 20 0 40 27 33 45 -7 19 -45 20 -52 0z"/>
<path d="M923 353 l-43 -4 0 -110 0 -109 25 0 c21 0 25 5 25 29 0 25 3 28 25
23 79 -15 133 61 95 133 -11 21 -62 48 -79 43 -3 -1 -25 -3 -48 -5z m95 -82
c2 -12 -2 -29 -9 -37 -15 -19 -59 -14 -72 7 -14 22 -1 67 21 72 24 6 56 -16
60 -42z"/>
<path d="M1131 346 c-55 -31 -65 -93 -22 -137 27 -26 34 -28 93 -26 l63 2 0
83 1 82 -31 0 c-16 -1 -41 1 -55 5 -14 3 -36 -1 -49 -9z m87 -75 c2 -12 -2
-29 -9 -37 -15 -19 -59 -14 -72 7 -14 22 -1 67 21 72 24 6 56 -16 60 -42z"/>
<path d="M1762 344 c-13 -9 -22 -26 -22 -40 0 -20 9 -29 45 -45 48 -21 55 -33
28 -43 -11 -4 -22 -1 -29 8 -16 23 -55 21 -47 -1 15 -44 74 -57 113 -25 34 28
21 65 -30 86 -22 9 -40 20 -40 26 0 13 37 13 45 0 9 -15 35 -12 35 4 0 17 -38
46 -60 46 -9 0 -26 -7 -38 -16z"/>
<path d="M1934 346 c-59 -26 -68 -106 -17 -146 38 -29 79 -26 115 10 26 27 30
36 25 67 -11 65 -64 95 -123 69z m66 -44 c18 -14 21 -25 16 -45 -8 -35 -49
-46 -76 -22 -25 23 -25 40 0 65 25 25 32 25 60 2z"/>
<path d="M700 264 c0 -77 2 -84 20 -84 16 0 19 8 22 63 3 56 5 62 26 65 14 2
22 10 22 22 0 15 -8 18 -45 18 l-45 0 0 -84z"/>
<path d="M810 264 c0 -83 1 -85 23 -82 20 3 22 9 25 86 3 82 3 82 -23 82 -25
0 -25 -1 -25 -86z"/>
<path d="M1490 343 c0 -5 12 -43 26 -86 24 -73 28 -78 52 -75 22 3 30 14 53
78 34 92 34 90 5 90 -21 0 -26 -7 -36 -50 -7 -28 -15 -52 -19 -55 -4 -2 -15
20 -25 50 -13 42 -22 55 -37 55 -10 0 -19 -3 -19 -7z"/>
<path d="M1670 264 c0 -83 1 -85 23 -82 20 3 22 9 23 68 1 82 -4 100 -27 100
-17 0 -19 -8 -19 -86z"/>
<path d="M2080 264 c0 -77 2 -84 20 -84 17 0 20 7 20 49 0 65 7 81 36 81 17 0
24 6 24 19 0 17 -7 20 -50 19 l-50 0 0 -84z"/>
</g>
</svg>
