<?xml version="1.0" encoding="UTF-8"?>
<svg version="1.1" viewBox="0 0 924 924" width="1280" height="1280" xmlns="http://www.w3.org/2000/svg">
<path transform="translate(452,208)" d="m0 0h19l24 2 23 4 19 5 25 9 26 13 19 12 13 10 13 11 21 21 11 14 10 14 9 15 9 17 8 20 6 18 5 22 3 20 1 12v30l-3 26-5 24-5 17-10 25-12 23-12 18-11 14-18 20-13 12-17 13-15 10-18 10-17 8-25 9-21 5-25 4-12 1h-30l-27-3-23-5-17-5-25-10-21-11-19-12-16-13-10-9-8-7-12-13-11-14-10-14-12-21-9-19-8-22-6-24-4-25-1-13v-28l3-27 5-24 10-30 10-22 11-19 12-17 9-11 11-12 15-15 11-9 15-11 20-12 27-13 30-10 25-5 16-2z" fill="#34E0A1"/>
<path transform="translate(452,342)" d="m0 0h19l22 2 25 5 26 9 21 10 16 10 68 1-2 4-16 17-11 12 6 7 8 10 8 14 6 18 2 13v15l-3 17-5 14-8 15-11 13-10 9-13 8-16 7-13 3-8 1h-15l-17-3-16-6-12-7-12-9-2 4-8 8-7 8-11 12-4-2-11-12-14-15-1-3-15 11-14 7-16 5-16 2-18-1-19-5-16-8-11-8-14-14-9-14-7-17-3-13-1-18 2-16 6-18 6-12 10-13 6-7-7-7-7-8-15-16v-2l68-1 15-9 16-8 14-6 19-6 18-4 14-2z"/>
<path transform="translate(545,419)" d="m0 0h21l12 3 12 6 10 8 8 9 8 16 3 13v16l-4 15-6 12-8 10-10 8-14 7-13 3h-16l-16-4-13-7-12-11-9-14-4-11-1-5v-22l3-11 7-14 9-10 8-7 14-7z" fill="#34E0A1"/>
<path transform="translate(358,419)" d="m0 0h21l14 4 11 6 10 9 7 8 8 16 2 9v22l-4 14-7 12-11 12-11 7-12 5-10 2h-16l-15-4-12-6-10-9-8-9-6-12-4-15v-16l4-16 7-13 11-12 14-9 12-4z" fill="#34E0A1"/>
<path transform="translate(452,373)" d="m0 0h20l24 3 20 5 14 5 1 2-16 8-11 7-11 9-7 7-10 14-8 16-4 15-1 6-2-1-4-17-5-12-8-13-8-10-9-9-17-12-17-8 3-3 19-6 25-5z" fill="#34E0A1"/>
<path transform="translate(365,448)" d="m0 0 12 1 12 6 7 7 5 11 1 5v7l-3 11-6 9-9 7-8 3h-15l-10-4-10-9-5-10-1-3v-14l4-10 7-9 8-5z"/>
<path transform="translate(553,448)" d="m0 0 11 1 10 4 7 6 6 10 2 6v14l-4 10-9 10-9 5-4 1h-15l-9-4-8-6-6-9-3-11 1-12 6-12 7-7 11-5z"/>
</svg>
