<?xml version="1.0" encoding="UTF-8"?>
<svg version="1.1" xmlns="http://www.w3.org/2000/svg" width="512" height="512">
<path d="M0 0 C0.85183483 -0.0072672 1.70366966 -0.01453441 2.58131766 -0.02202183 C5.44942188 -0.04033911 8.31620012 -0.02288532 11.18429565 -0.00571251 C13.25570423 -0.01147103 15.3271077 -0.01941033 17.39850044 -0.02934873 C23.10127895 -0.05028209 28.80364079 -0.03987726 34.50642109 -0.02441764 C40.65239137 -0.01313464 46.7982885 -0.03055168 52.94424438 -0.04431725 C64.29180969 -0.06529882 75.63920457 -0.06343387 86.98676568 -0.0497599 C97.46914755 -0.03719025 107.95148055 -0.03389481 118.43386841 -0.03987312 C119.47618355 -0.04044601 119.47618355 -0.04044601 120.53955556 -0.04103047 C123.36017036 -0.04258712 126.18078514 -0.04417912 129.00139988 -0.04582929 C155.46982959 -0.06112996 181.93817437 -0.04724803 208.40659097 -0.02034481 C231.93068256 0.00338388 255.45463884 0.00126077 278.97872925 -0.02264977 C305.39823166 -0.04941341 331.817659 -0.06004492 358.23717308 -0.04458845 C361.05269748 -0.04298482 363.8682219 -0.04142062 366.68374634 -0.03987312 C367.72365422 -0.03928004 367.72365422 -0.03928004 368.78457035 -0.03867498 C379.26127751 -0.03298367 389.73793047 -0.03964632 400.21463013 -0.05227089 C412.125176 -0.06655156 424.03556201 -0.06254412 435.94610167 -0.03586717 C442.02669824 -0.02269827 448.10701971 -0.01762909 454.18761444 -0.03411293 C459.74900746 -0.0489616 465.30986917 -0.04090813 470.87121367 -0.01422517 C472.88795816 -0.00861862 474.90474712 -0.01152896 476.92146325 -0.02360411 C479.65416015 -0.0387169 482.38501551 -0.02331245 485.11761475 0 C485.90843185 -0.01170583 486.69924896 -0.02341166 487.51403022 -0.03547221 C491.40554 0.03129993 493.3749946 0.49489197 496.54705656 2.8127476 C498.82305113 5.99914787 499.18482637 7.45220206 499.18801308 11.3217411 C499.20105181 12.46419981 499.21409055 13.60665852 499.2275244 14.78373718 C499.21637079 16.03421152 499.20521718 17.28468586 499.19372559 18.57305336 C499.19948736 19.91850082 499.20742887 21.26394042 499.21736181 22.60936356 C499.23825142 26.30554088 499.22791092 30.00107346 499.21243072 33.69725323 C499.20112956 37.68370959 499.21857373 41.67005417 499.23233032 45.65648842 C499.25458057 53.46548472 499.24975365 61.27424094 499.23526712 69.08324671 C499.22398188 75.42892905 499.22244087 81.77454404 499.2278862 88.12023354 C499.22903545 89.47420359 499.22903545 89.47420359 499.23020791 90.85552657 C499.23180652 92.68915226 499.23342758 94.52277793 499.23507087 96.35640359 C499.2493336 113.55625194 499.23292744 130.75596711 499.20606904 147.95579362 C499.18372977 162.71874248 499.18760976 177.48149477 499.21066284 192.24444008 C499.2374116 209.38211683 499.24796026 226.51967681 499.23260152 243.65737152 C499.23100875 245.48430695 499.2294369 247.3112424 499.2278862 249.13817787 C499.22672913 250.48656004 499.22672913 250.48656004 499.22554869 251.86218226 C499.22122891 258.20132028 499.22852422 264.54038432 499.24028397 270.87951088 C499.25429726 278.60330726 499.25053381 286.32684953 499.22388025 294.05061674 C499.21072611 297.99258188 499.20561643 301.93412314 499.22212601 305.87608528 C499.23700626 309.48353573 499.22887064 313.09016872 499.20223825 316.69754481 C499.19399154 318.62325541 499.21034855 320.54902257 499.2275244 322.47467422 C499.21448566 323.61713293 499.20144693 324.75959164 499.18801308 325.9366703 C499.18679543 327.41522279 499.18679543 327.41522279 499.18555319 328.92364502 C498.27752801 332.8434434 496.79067949 334.26764623 493.55880737 336.6292057 C490.55364084 337.12045175 488.11823893 337.30282724 485.11761475 337.25841141 C483.8398625 337.26931221 483.8398625 337.26931221 482.53629708 337.28043324 C479.66819286 337.29875052 476.80141462 337.28129672 473.93331909 337.26412392 C471.86191052 337.26988244 469.79050704 337.27782174 467.7191143 337.28776014 C462.0163358 337.3086935 456.31397395 337.29828867 450.61119366 337.28282905 C444.46522338 337.27154604 438.31932625 337.28896308 432.17337036 337.30272865 C420.82580505 337.32371023 409.47841018 337.32184528 398.13084906 337.30817131 C387.64846719 337.29560166 377.1661342 337.29230622 366.68374634 337.29828453 C365.6414312 337.29885742 365.6414312 337.29885742 364.57805918 337.29944188 C361.75744438 337.30099853 358.93682961 337.30259053 356.11621486 337.3042407 C329.64778516 337.31954137 303.17944038 337.30565944 276.71102378 337.27875621 C253.18693218 337.25502753 229.66297591 337.25715064 206.1388855 337.28106117 C179.71938309 337.30782481 153.29995575 337.31845633 126.88044167 337.30299985 C124.06491726 337.30139623 121.24939284 337.29983203 118.43386841 337.29828453 C117.39396052 337.29769145 117.39396052 337.29769145 116.33304439 337.29708639 C105.85633724 337.29139508 95.37968428 337.29805773 84.90298462 337.3106823 C72.99243875 337.32496297 61.08205273 337.32095553 49.17151308 337.29427858 C43.0909165 337.28110968 37.01059504 337.2760405 30.93000031 337.29252434 C25.36860728 337.30737301 19.80774557 337.29931953 14.24640107 337.27263658 C12.22965658 337.26703002 10.21286763 337.26994037 8.19615149 337.28201552 C5.4634546 337.29712831 2.73259924 337.28172386 0 337.25841141 C-0.79081711 337.27011724 -1.58163421 337.28182307 -2.39641547 337.29388362 C-6.28792525 337.22711148 -8.25737985 336.76351943 -11.42944181 334.44566381 C-13.70543638 331.25926354 -14.06721162 329.80620935 -14.07039833 325.9366703 C-14.08343707 324.7942116 -14.0964758 323.65175289 -14.10990965 322.47467422 C-14.09875605 321.22419989 -14.08760244 319.97372555 -14.07611084 318.68535805 C-14.08187262 317.33991058 -14.08981413 315.99447099 -14.09974706 314.64904785 C-14.12063668 310.95287053 -14.11029617 307.25733795 -14.09481597 303.56115818 C-14.08351482 299.57470181 -14.10095899 295.58835723 -14.11471558 291.60192299 C-14.13696582 283.79292669 -14.1321389 275.98417047 -14.11765237 268.1751647 C-14.10636713 261.82948236 -14.10482613 255.48386737 -14.11027145 249.13817787 C-14.11103762 248.23553117 -14.11180378 247.33288447 -14.11259317 246.40288484 C-14.11419177 244.56925915 -14.11581284 242.73563347 -14.11745612 240.90200782 C-14.13171886 223.70215947 -14.11531269 206.5024443 -14.08845429 189.30261779 C-14.06611503 174.53966893 -14.06999501 159.77691664 -14.0930481 145.01397133 C-14.11979686 127.87629458 -14.13034551 110.73873459 -14.11498678 93.60103989 C-14.11339401 91.77410445 -14.11182215 89.947169 -14.11027145 88.12023354 C-14.10950008 87.22131209 -14.1087287 86.32239064 -14.10793395 85.39622915 C-14.10361417 79.05709113 -14.11090947 72.71802709 -14.12266922 66.37890053 C-14.13668251 58.65510415 -14.13291907 50.93156188 -14.1062655 43.20779467 C-14.09311137 39.26582952 -14.08800168 35.32428827 -14.10451126 31.38232613 C-14.11939151 27.77487568 -14.11125589 24.16824269 -14.0846235 20.56086659 C-14.07637679 18.635156 -14.0927338 16.70938883 -14.10990965 14.78373718 C-14.09687092 13.64127848 -14.08383218 12.49881977 -14.07039833 11.3217411 C-14.06958657 10.33603945 -14.06877481 9.35033779 -14.06793845 8.33476639 C-12.326103 0.81554354 -6.79442971 -0.10057249 0 0 Z " fill="#FE4E58" transform="translate(13.441192626953125,87.37079429626465)"/>
<path d="M0 0 C0.85183483 -0.0072672 1.70366966 -0.01453441 2.58131766 -0.02202183 C5.44942188 -0.04033911 8.31620012 -0.02288532 11.18429565 -0.00571251 C13.25570423 -0.01147103 15.3271077 -0.01941033 17.39850044 -0.02934873 C23.10127895 -0.05028209 28.80364079 -0.03987726 34.50642109 -0.02441764 C40.65239137 -0.01313464 46.7982885 -0.03055168 52.94424438 -0.04431725 C64.29180969 -0.06529882 75.63920457 -0.06343387 86.98676568 -0.0497599 C97.46914755 -0.03719025 107.95148055 -0.03389481 118.43386841 -0.03987312 C119.47618355 -0.04044601 119.47618355 -0.04044601 120.53955556 -0.04103047 C123.36017036 -0.04258712 126.18078514 -0.04417912 129.00139988 -0.04582929 C155.46982959 -0.06112996 181.93817437 -0.04724803 208.40659097 -0.02034481 C231.93068256 0.00338388 255.45463884 0.00126077 278.97872925 -0.02264977 C305.39823166 -0.04941341 331.817659 -0.06004492 358.23717308 -0.04458845 C361.05269748 -0.04298482 363.8682219 -0.04142062 366.68374634 -0.03987312 C367.72365422 -0.03928004 367.72365422 -0.03928004 368.78457035 -0.03867498 C379.26127751 -0.03298367 389.73793047 -0.03964632 400.21463013 -0.05227089 C412.125176 -0.06655156 424.03556201 -0.06254412 435.94610167 -0.03586717 C442.02669824 -0.02269827 448.10701971 -0.01762909 454.18761444 -0.03411293 C459.74900746 -0.0489616 465.30986917 -0.04090813 470.87121367 -0.01422517 C472.88795816 -0.00861862 474.90474712 -0.01152896 476.92146325 -0.02360411 C479.65416015 -0.0387169 482.38501551 -0.02331245 485.11761475 0 C485.90843185 -0.01170583 486.69924896 -0.02341166 487.51403022 -0.03547221 C493.57166954 0.06846728 493.80091373 0.87131206 498.55880737 5.6292057 C498.55880737 46.5492057 498.55880737 87.4692057 498.55880737 129.6292057 C408.13880737 129.6292057 317.71880737 129.6292057 224.55880737 129.6292057 C224.55880737 145.1392057 224.55880737 160.6492057 224.55880737 176.6292057 C219.18738281 182.00063027 215.83815136 181.78005765 208.65185547 181.78983498 C207.26897805 181.79746671 207.26897805 181.79746671 205.85816371 181.80525261 C202.75593839 181.8210017 199.65373639 181.82950855 196.55148315 181.83794594 C194.33257905 181.84748218 192.11367645 181.85737324 189.89477539 181.86759377 C182.59790821 181.89899714 175.30102955 181.91924353 168.00411987 181.93779945 C166.76374513 181.94109678 165.52337039 181.9443941 164.24540854 181.94779134 C152.55403377 181.97856602 140.86265492 182.00544205 129.1712513 182.02221012 C126.46401078 182.02615961 123.75677036 182.03016262 121.04953003 182.034235 C120.37665915 182.03524336 119.70378827 182.03625172 119.01052736 182.03729064 C108.10495336 182.05430585 97.19960594 182.09542622 86.29414262 182.14625799 C75.09900575 182.19801117 63.90395002 182.22666645 52.70868671 182.23440701 C46.42229867 182.23937214 40.13631367 182.25453601 33.85004044 182.29415131 C27.93857687 182.33091446 22.02774827 182.33946101 16.11619186 182.32614517 C13.94453649 182.32619929 11.77285369 182.33656295 9.6013031 182.3578968 C6.64000361 182.38543847 3.6810425 182.37613222 0.71972656 182.35746193 C-0.14301719 182.37425686 -1.00576093 182.39105179 -1.89464843 182.40835565 C-6.37561189 182.3375766 -7.95138108 182.04897152 -11.47406769 179.03004837 C-13.72144503 175.14469437 -14.06933557 172.9499049 -14.07611084 168.48746681 C-14.08391079 167.79166419 -14.09171075 167.09586157 -14.09974706 166.37897402 C-14.11960948 164.05941256 -14.10392727 161.74150242 -14.08816528 159.42193031 C-14.09494398 157.75429264 -14.10384853 156.08666245 -14.11471558 154.4190464 C-14.13748399 149.89836182 -14.12868333 145.3782486 -14.11282015 140.8575542 C-14.10015048 136.12464862 -14.11190403 131.39179157 -14.11975098 126.65888405 C-14.12884354 118.71229719 -14.11686902 110.7659428 -14.0930481 102.81939125 C-14.06582818 93.63287806 -14.07465878 84.44691957 -14.10218012 75.26041979 C-14.12487023 67.37064108 -14.12807205 59.48102934 -14.11498678 51.59122854 C-14.10719292 46.87998362 -14.10614904 42.16899946 -14.12266922 37.4577713 C-14.13711367 33.0293264 -14.12709312 28.60159684 -14.09819794 24.17322922 C-14.09158733 22.5482661 -14.09348444 20.92324276 -14.10451126 19.2983036 C-14.11818061 17.07937719 -14.10103928 14.86274141 -14.07611084 12.64396095 C-14.07422571 11.40272437 -14.07234058 10.16148779 -14.07039833 8.88263798 C-12.56043919 1.07509621 -7.07160394 -0.10467528 0 0 Z " fill="#42489B" transform="translate(13.441192626953125,87.37079429626465)"/>
<path d="M0 0 C35.07562347 -0.11440234 70.15120924 -0.20252695 105.22697995 -0.25532665 C109.36640816 -0.26158031 113.50583601 -0.26805191 117.64526367 -0.2746582 C118.88141086 -0.27662553 118.88141086 -0.27662553 120.14253072 -0.2786326 C133.49258711 -0.30039916 146.84253603 -0.33982753 160.19252863 -0.38576398 C173.88716635 -0.43249391 187.58174772 -0.46028805 201.2764619 -0.47044247 C209.72936012 -0.47730885 218.1819546 -0.4990084 226.63475934 -0.53958233 C232.42832527 -0.565978 238.22173378 -0.57400825 244.01535549 -0.56750689 C247.36001694 -0.56429884 250.70371787 -0.57199118 254.04835892 -0.59602737 C257.67290076 -0.62080421 261.29612958 -0.61495964 264.92070007 -0.60127258 C265.9800376 -0.61583679 267.03937512 -0.630401 268.13081378 -0.64540654 C269.58787241 -0.63047368 269.58787241 -0.63047368 271.07436657 -0.61523914 C271.91089046 -0.61713775 272.74741434 -0.61903635 273.60928744 -0.62099248 C276 0 276 0 281 5 C281 37.67 281 70.34 281 104 C190.58 104 100.16 104 7 104 C6.67 71.33 6.34 38.66 6 5 C3.16343011 1.96731398 3.16343011 1.96731398 0 0 Z " fill="#FE4D57" transform="translate(231,88)"/>
<path d="M0 0 C90.42 0 180.84 0 274 0 C274 25.74 274 51.48 274 78 C105.04 78 -63.92 78 -238 78 C-238 67.44 -238 56.88 -238 46 C-236.35 47.65 -234.7 49.3 -233 51 C-230.96544273 51.72430498 -230.96544273 51.72430498 -228.86920166 51.62361908 C-228.07508251 51.63542442 -227.28096336 51.64722976 -226.46278 51.65939283 C-225.60140049 51.64687499 -224.74002098 51.63435714 -223.85253906 51.62145996 C-222.46709837 51.63104319 -222.46709837 51.63104319 -221.05366898 51.64082003 C-217.95721414 51.65608655 -214.86203539 51.63559729 -211.765625 51.61523438 C-209.54642309 51.61873506 -207.32722369 51.62439304 -205.10803223 51.63204956 C-199.07909302 51.64631457 -193.05060897 51.62921879 -187.02171326 51.60576439 C-180.71662553 51.58568021 -174.41155716 51.59153368 -168.10644531 51.59387207 C-157.51750508 51.59381847 -146.92872347 51.57417051 -136.33984375 51.54199219 C-125.44656906 51.50890117 -114.55348019 51.49473395 -103.66015625 51.50097656 C-90.53101421 51.50846345 -77.40195835 51.50109082 -64.27282715 51.47932434 C-59.258574 51.47114311 -54.24436181 51.46844213 -49.23010254 51.47001648 C-43.32690721 51.47089451 -37.42393437 51.45670082 -31.52079773 51.43078995 C-29.35240253 51.42361915 -27.18398368 51.4215489 -25.01557922 51.42490768 C-22.05929727 51.42861384 -19.10366772 51.41390467 -16.14746094 51.39440918 C-15.28608143 51.39973711 -14.42470192 51.40506503 -13.53722 51.41055441 C-8.4284448 51.35229069 -4.79222705 50.79222705 -1 47 C-0.505 23.735 -0.505 23.735 0 0 Z " fill="#FE4C56" transform="translate(238,217)"/>
<path d="M0 0 C168.96 0 337.92 0 512 0 C512 15.51 512 31.02 512 47 C506.42924768 52.57075232 506.42924768 52.57075232 500.95522285 52.66467792 C500.16440574 52.65297209 499.37358863 52.64126626 498.55880737 52.6292057 C497.70697254 52.63647291 496.85513772 52.64374011 495.97748971 52.65122753 C493.10938549 52.66954482 490.24260725 52.65209102 487.37451172 52.63491821 C485.30310314 52.64067673 483.23169967 52.64861603 481.16030693 52.65855443 C475.45752842 52.6794878 469.75516658 52.66908297 464.05238628 52.65362334 C457.906416 52.64234034 451.76051888 52.65975738 445.61456299 52.67352295 C434.26699768 52.69450452 422.91960281 52.69263958 411.57204169 52.67896561 C401.08965982 52.66639595 390.60732682 52.66310051 380.12493896 52.66907883 C379.08262382 52.66965172 379.08262382 52.66965172 378.01925181 52.67023618 C375.19863701 52.67179283 372.37802224 52.67338482 369.55740749 52.675035 C343.08897778 52.69033567 316.62063301 52.67645374 290.1522164 52.64955051 C266.62812481 52.62582183 243.10416854 52.62794494 219.58007812 52.65185547 C193.16057572 52.67861911 166.74114837 52.68925062 140.32163429 52.67379415 C137.50610989 52.67219052 134.69058547 52.67062633 131.87506104 52.66907883 C130.83515315 52.66848575 130.83515315 52.66848575 129.77423702 52.66788069 C119.29752986 52.66218937 108.8208769 52.66885202 98.34417725 52.68147659 C86.43363137 52.69575726 74.52324536 52.69174982 62.61270571 52.66507287 C56.53210913 52.65190397 50.45178767 52.6468348 44.37119293 52.66331863 C38.80979991 52.6781673 33.2489382 52.67011383 27.6875937 52.64343087 C25.67084921 52.63782432 23.65406025 52.64073467 21.63734412 52.65280981 C18.90464723 52.6679226 16.17379187 52.65251815 13.44119263 52.6292057 C12.65037552 52.64091153 11.85955842 52.65261737 11.04477715 52.66467792 C4.98713783 52.56073842 4.75789365 51.75789365 0 47 C0 31.49 0 15.98 0 0 Z " fill="#F5F3F3" transform="translate(0,372)"/>
<path d="M0 0 C1.65 1.65 3.3 3.3 5 5 C8.03391339 5.49161787 10.50353825 5.67451029 13.53324604 5.63085651 C14.39502072 5.63831411 15.2567954 5.6457717 16.14468446 5.65345529 C19.04653998 5.67243904 21.94709779 5.65568169 24.84895325 5.63923645 C26.94454981 5.64554494 29.04014073 5.65404583 31.13572043 5.66455668 C36.90515023 5.68712159 42.67418142 5.67847517 48.4436239 5.6648711 C54.6610803 5.65563017 60.87845301 5.6751369 67.09588623 5.69119263 C77.87163024 5.71506604 88.6472245 5.7208068 99.42298317 5.71384621 C110.7255732 5.70662111 122.0280829 5.70970054 133.33066368 5.72656822 C134.0331978 5.72761087 134.73573192 5.72865352 135.45955495 5.72972776 C139.02731316 5.73507645 142.59507107 5.7406095 146.16282889 5.74621352 C171.43887635 5.78558393 196.71489105 5.80181104 221.9909668 5.80444336 C246.54762628 5.80705368 271.10424365 5.82013735 295.66088867 5.84741211 C296.41771739 5.84824853 297.1745461 5.84908496 297.95430902 5.84994673 C305.55463491 5.85835796 313.15496054 5.86698225 320.75528601 5.87576263 C336.23827919 5.89364474 351.72127377 5.91010475 367.20426941 5.92570496 C368.27211406 5.92678351 368.27211406 5.92678351 369.36153133 5.92788386 C416.90767423 5.97574403 464.45383571 5.99006967 512 6 C512 14.58 512 23.16 512 32 C343.04 32 174.08 32 0 32 C0 21.44 0 10.88 0 0 Z " fill="#F5F3F3" transform="translate(0,263)"/>
<path d="M0 0 C168.96 0 337.92 0 512 0 C512 8.58 512 17.16 512 26 C343.04 26 174.08 26 0 26 C0 17.42 0 8.84 0 0 Z " fill="#FE4D56" transform="translate(0,346)"/>
<path d="M0 0 C168.96 0 337.92 0 512 0 C512 6.93 512 13.86 512 21 C506.42924768 26.57075232 506.42924768 26.57075232 500.95522285 26.66467792 C500.16440574 26.65297209 499.37358863 26.64126626 498.55880737 26.6292057 C497.70697254 26.63647291 496.85513772 26.64374011 495.97748971 26.65122753 C493.10938549 26.66954482 490.24260725 26.65209102 487.37451172 26.63491821 C485.30310314 26.64067673 483.23169967 26.64861603 481.16030693 26.65855443 C475.45752842 26.6794878 469.75516658 26.66908297 464.05238628 26.65362334 C457.906416 26.64234034 451.76051888 26.65975738 445.61456299 26.67352295 C434.26699768 26.69450452 422.91960281 26.69263958 411.57204169 26.67896561 C401.08965982 26.66639595 390.60732682 26.66310051 380.12493896 26.66907883 C379.08262382 26.66965172 379.08262382 26.66965172 378.01925181 26.67023618 C375.19863701 26.67179283 372.37802224 26.67338482 369.55740749 26.675035 C343.08897778 26.69033567 316.62063301 26.67645374 290.1522164 26.64955051 C266.62812481 26.62582183 243.10416854 26.62794494 219.58007812 26.65185547 C193.16057572 26.67861911 166.74114837 26.68925062 140.32163429 26.67379415 C137.50610989 26.67219052 134.69058547 26.67062633 131.87506104 26.66907883 C130.83515315 26.66848575 130.83515315 26.66848575 129.77423702 26.66788069 C119.29752986 26.66218937 108.8208769 26.66885202 98.34417725 26.68147659 C86.43363137 26.69575726 74.52324536 26.69174982 62.61270571 26.66507287 C56.53210913 26.65190397 50.45178767 26.6468348 44.37119293 26.66331863 C38.80979991 26.6781673 33.2489382 26.67011383 27.6875937 26.64343087 C25.67084921 26.63782432 23.65406025 26.64073467 21.63734412 26.65280981 C18.90464723 26.6679226 16.17379187 26.65251815 13.44119263 26.6292057 C12.65037552 26.64091153 11.85955842 26.65261737 11.04477715 26.66467792 C4.98713783 26.56073842 4.75789365 25.75789365 0 21 C0 14.07 0 7.14 0 0 Z " fill="#FE4C56" transform="translate(0,398)"/>
<path d="M0 0 C168.96 0 337.92 0 512 0 C512 8.25 512 16.5 512 25 C343.04 25 174.08 25 0 25 C0 16.75 0 8.5 0 0 Z " fill="#F5F5F5" transform="translate(0,321)"/>
<path d="M0 0 C35.07562347 -0.11440234 70.15120924 -0.20252695 105.22697995 -0.25532665 C109.36640816 -0.26158031 113.50583601 -0.26805191 117.64526367 -0.2746582 C118.88141086 -0.27662553 118.88141086 -0.27662553 120.14253072 -0.2786326 C133.49258711 -0.30039916 146.84253603 -0.33982753 160.19252863 -0.38576398 C173.88716635 -0.43249391 187.58174772 -0.46028805 201.2764619 -0.47044247 C209.72936012 -0.47730885 218.1819546 -0.4990084 226.63475934 -0.53958233 C232.42832527 -0.565978 238.22173378 -0.57400825 244.01535549 -0.56750689 C247.36001694 -0.56429884 250.70371787 -0.57199118 254.04835892 -0.59602737 C257.67290076 -0.62080421 261.29612958 -0.61495964 264.92070007 -0.60127258 C265.9800376 -0.61583679 267.03937512 -0.630401 268.13081378 -0.64540654 C269.58787241 -0.63047368 269.58787241 -0.63047368 271.07436657 -0.61523914 C271.91089046 -0.61713775 272.74741434 -0.61903635 273.60928744 -0.62099248 C276 0 276 0 281 5 C281 11.93 281 18.86 281 26 C190.58 26 100.16 26 7 26 C6.67 19.07 6.34 12.14 6 5 C3.16343011 1.96731398 3.16343011 1.96731398 0 0 Z " fill="#FE4C56" transform="translate(231,88)"/>
<path d="M0 0 C90.42 0 180.84 0 274 0 C274 8.58 274 17.16 274 26 C183.58 26 93.16 26 0 26 C0 17.42 0 8.84 0 0 Z " fill="#F4F2F3" transform="translate(238,217)"/>
<path d="M0 0 C90.42 0 180.84 0 274 0 C274 8.58 274 17.16 274 26 C183.58 26 93.16 26 0 26 C0 17.42 0 8.84 0 0 Z " fill="#F4F1F1" transform="translate(238,166)"/>
<path d="M0 0 C90.42 0 180.84 0 274 0 C274 8.58 274 17.16 274 26 C183.58 26 93.16 26 0 26 C0 17.42 0 8.84 0 0 Z " fill="#F4F3F3" transform="translate(238,114)"/>
<path d="M0 0 C90.42 0 180.84 0 274 0 C274 8.25 274 16.5 274 25 C183.58 25 93.16 25 0 25 C0 16.75 0 8.5 0 0 Z " fill="#FE4A55" transform="translate(238,192)"/>
<path d="M0 0 C0.66 0 1.32 0 2 0 C2.185625 0.78375 2.37125 1.5675 2.5625 2.375 C3.83961627 5.39376342 3.83961627 5.39376342 7.625 6.3125 C8.73875 6.539375 9.8525 6.76625 11 7 C10.01 7.7734375 10.01 7.7734375 9 8.5625 C6.34362457 11.79995755 6.68657868 13.92552281 7 18 C5.948125 17.62875 4.89625 17.2575 3.8125 16.875 C-0.18632214 15.95723754 -1.49128216 16.08615391 -5 18 C-4.9175 16.9275 -4.835 15.855 -4.75 14.75 C-4.63762783 10.95990735 -4.63762783 10.95990735 -7 8.5625 C-7.66 8.046875 -8.32 7.53125 -9 7 C-7.88625 6.773125 -6.7725 6.54625 -5.625 6.3125 C-1.83961627 5.39376342 -1.83961627 5.39376342 -0.5625 2.375 C-0.376875 1.59125 -0.19125 0.8075 0 0 Z " fill="#E4E5EC" transform="translate(23,200)"/>
<path d="M0 0 C0.66 0 1.32 0 2 0 C2.185625 0.78375 2.37125 1.5675 2.5625 2.375 C3.83961627 5.39376342 3.83961627 5.39376342 7.625 6.3125 C8.73875 6.539375 9.8525 6.76625 11 7 C10.01 7.7734375 10.01 7.7734375 9 8.5625 C6.34362457 11.79995755 6.68657868 13.92552281 7 18 C5.948125 17.62875 4.89625 17.2575 3.8125 16.875 C-0.18632214 15.95723754 -1.49128216 16.08615391 -5 18 C-4.9175 16.9275 -4.835 15.855 -4.75 14.75 C-4.63762783 10.95990735 -4.63762783 10.95990735 -7 8.5625 C-7.66 8.046875 -8.32 7.53125 -9 7 C-7.88625 6.773125 -6.7725 6.54625 -5.625 6.3125 C-1.83961627 5.39376342 -1.83961627 5.39376342 -0.5625 2.375 C-0.376875 1.59125 -0.19125 0.8075 0 0 Z " fill="#E5E5ED" transform="translate(23,108)"/>
<path d="M0 0 C0.66 0 1.32 0 2 0 C2.33 1.98 2.66 3.96 3 6 C5.31 6 7.62 6 10 6 C10 6.99 10 7.98 10 9 C9.01 9.66 8.02 10.32 7 11 C6.74984127 14.58357241 6.74984127 14.58357241 7 18 C5.948125 17.62875 4.89625 17.2575 3.8125 16.875 C-0.18632214 15.95723754 -1.49128216 16.08615391 -5 18 C-4.9175 16.9275 -4.835 15.855 -4.75 14.75 C-4.63762783 10.95990735 -4.63762783 10.95990735 -7 8.5625 C-7.66 8.046875 -8.32 7.53125 -9 7 C-7.88625 6.773125 -6.7725 6.54625 -5.625 6.3125 C-1.83961627 5.39376342 -1.83961627 5.39376342 -0.5625 2.375 C-0.376875 1.59125 -0.19125 0.8075 0 0 Z " fill="#E5E5ED" transform="translate(142,123)"/>
<path d="M0 0 C0.66 0 1.32 0 2 0 C2.33 1.98 2.66 3.96 3 6 C5.31 6 7.62 6 10 6 C9.690625 6.5775 9.38125 7.155 9.0625 7.75 C7.34416297 11.38883135 7 13.92920988 7 18 C5.948125 17.62875 4.89625 17.2575 3.8125 16.875 C-0.18632214 15.95723754 -1.49128216 16.08615391 -5 18 C-4.9175 16.9275 -4.835 15.855 -4.75 14.75 C-4.63762783 10.95990735 -4.63762783 10.95990735 -7 8.5625 C-7.66 8.046875 -8.32 7.53125 -9 7 C-7.88625 6.773125 -6.7725 6.54625 -5.625 6.3125 C-1.83961627 5.39376342 -1.83961627 5.39376342 -0.5625 2.375 C-0.376875 1.59125 -0.19125 0.8075 0 0 Z " fill="#E6E6ED" transform="translate(142,215)"/>
<path d="M0 0 C1.5 1.3125 1.5 1.3125 3 3 C3 3.99 3 4.98 3 6 C5.31 6 7.62 6 10 6 C9.690625 6.556875 9.38125 7.11375 9.0625 7.6875 C7.47860666 11.13479727 7 14.2207586 7 18 C4.61435923 17.42415568 2.33317216 16.77772405 0 16 C-2.6569191 16.87914688 -2.6569191 16.87914688 -5 18 C-4.9175 16.906875 -4.835 15.81375 -4.75 14.6875 C-4.57398486 10.96483185 -4.57398486 10.96483185 -7 9.1875 C-7.99 8.5996875 -7.99 8.5996875 -9 8 C-9 7.34 -9 6.68 -9 6 C-5.535 5.505 -5.535 5.505 -2 5 C-1.34 3.35 -0.68 1.7 0 0 Z " fill="#E6E7ED" transform="translate(47,215)"/>
<path d="M0 0 C0.66 0.33 1.32 0.66 2 1 C2.625 3.5625 2.625 3.5625 3 6 C5.31 6 7.62 6 10 6 C8.25 9.875 8.25 9.875 6 11 C6 13.31 6 15.62 6 18 C3.69 17.34 1.38 16.68 -1 16 C-1.66 16.66 -2.32 17.32 -3 18 C-3.99 18 -4.98 18 -6 18 C-5.125 13.25 -5.125 13.25 -4 11 C-4.639375 10.731875 -5.27875 10.46375 -5.9375 10.1875 C-8 9 -8 9 -9 6 C-6.69 6 -4.38 6 -2 6 C-1.855625 5.195625 -1.71125 4.39125 -1.5625 3.5625 C-1 1 -1 1 0 0 Z " fill="#E6E7ED" transform="translate(214,200)"/>
<path d="M0 0 C0.99 0.33 1.98 0.66 3 1 C3.33 2.65 3.66 4.3 4 6 C6.31 6 8.62 6 11 6 C10 9 10 9 7 11 C7.33 13.31 7.66 15.62 8 18 C6.88625 17.4740625 6.88625 17.4740625 5.75 16.9375 C2.77299356 15.92261144 1.87632105 15.97936995 -1 17 C-2.33333333 17.33333333 -3.66666667 17.66666667 -5 18 C-4.67 15.69 -4.34 13.38 -4 11 C-4.66 10.54625 -5.32 10.0925 -6 9.625 C-6.66 9.08875 -7.32 8.5525 -8 8 C-8 7.34 -8 6.68 -8 6 C-5.69 6 -3.38 6 -1 6 C-0.67 4.02 -0.34 2.04 0 0 Z " fill="#E9E9EF" transform="translate(94,154)"/>
<path d="M0 0 C1.5 1.3125 1.5 1.3125 3 3 C3 3.99 3 4.98 3 6 C5.31 6 7.62 6 10 6 C9.690625 6.556875 9.38125 7.11375 9.0625 7.6875 C7.47860666 11.13479727 7 14.2207586 7 18 C6.4225 17.835 5.845 17.67 5.25 17.5 C1.60994097 16.69109799 -1.47291292 16.99226083 -5 18 C-4.9175 16.9275 -4.835 15.855 -4.75 14.75 C-4.63762783 10.95990735 -4.63762783 10.95990735 -7 8.5625 C-7.66 8.046875 -8.32 7.53125 -9 7 C-7.88625 6.773125 -6.7725 6.54625 -5.625 6.3125 C-1.83961627 5.39376342 -1.83961627 5.39376342 -0.5625 2.375 C-0.376875 1.59125 -0.19125 0.8075 0 0 Z " fill="#E6E6ED" transform="translate(47,123)"/>
<path d="M0 0 C0.66 0.33 1.32 0.66 2 1 C2.625 3.5625 2.625 3.5625 3 6 C5.31 6 7.62 6 10 6 C8.25 9.875 8.25 9.875 6 11 C6 13.31 6 15.62 6 18 C3.69 17.34 1.38 16.68 -1 16 C-1.66 16.66 -2.32 17.32 -3 18 C-3.99 18 -4.98 18 -6 18 C-5.125 13.25 -5.125 13.25 -4 11 C-4.639375 10.731875 -5.27875 10.46375 -5.9375 10.1875 C-8 9 -8 9 -9 6 C-6.69 6 -4.38 6 -2 6 C-1.855625 5.195625 -1.71125 4.39125 -1.5625 3.5625 C-1 1 -1 1 0 0 Z " fill="#E6E6ED" transform="translate(214,108)"/>
<path d="M0 0 C1.5 1.3125 1.5 1.3125 3 3 C3 3.99 3 4.98 3 6 C5.31 6 7.62 6 10 6 C9.1875 7.9375 9.1875 7.9375 8 10 C7.01 10.33 6.02 10.66 5 11 C5.33 11.598125 5.66 12.19625 6 12.8125 C7 15 7 15 7 18 C4.61435923 17.42415568 2.33317216 16.77772405 0 16 C-2.6569191 16.87914688 -2.6569191 16.87914688 -5 18 C-4.9175 16.906875 -4.835 15.81375 -4.75 14.6875 C-4.57398486 10.96483185 -4.57398486 10.96483185 -7 9.1875 C-7.99 8.5996875 -7.99 8.5996875 -9 8 C-9 7.34 -9 6.68 -9 6 C-6.69 6 -4.38 6 -2 6 C-1.34 4.02 -0.68 2.04 0 0 Z " fill="#E6E6ED" transform="translate(166,108)"/>
<path d="M0 0 C0.99 0.33 1.98 0.66 3 1 C3.33 2.65 3.66 4.3 4 6 C6.31 6 8.62 6 11 6 C11 6.66 11 7.32 11 8 C10.34 8.391875 9.68 8.78375 9 9.1875 C6.57398486 10.96483185 6.57398486 10.96483185 6.75 14.6875 C6.87375 16.3271875 6.87375 16.3271875 7 18 C6.1646875 17.4740625 6.1646875 17.4740625 5.3125 16.9375 C1.55681863 15.41492647 -1.2832512 16.76108373 -5 18 C-4.67 15.36 -4.34 12.72 -4 10 C-5.32 9.34 -6.64 8.68 -8 8 C-8 7.34 -8 6.68 -8 6 C-5.69 6 -3.38 6 -1 6 C-0.67 4.02 -0.34 2.04 0 0 Z " fill="#EAEAEF" transform="translate(118,231)"/>
<path d="M0 0 C0.66 0.33 1.32 0.66 2 1 C2.625 3.5625 2.625 3.5625 3 6 C5.31 6 7.62 6 10 6 C8.25 9.875 8.25 9.875 6 11 C6 13.31 6 15.62 6 18 C3.69 17.34 1.38 16.68 -1 16 C-1.66 16.66 -2.32 17.32 -3 18 C-3.99 18 -4.98 18 -6 18 C-5.34 15.69 -4.68 13.38 -4 11 C-4.639375 10.731875 -5.27875 10.46375 -5.9375 10.1875 C-8 9 -8 9 -9 6 C-6.69 6 -4.38 6 -2 6 C-1.855625 5.195625 -1.71125 4.39125 -1.5625 3.5625 C-1 1 -1 1 0 0 Z " fill="#E7E7EE" transform="translate(95,215)"/>
<path d="M0 0 C1.5 1.3125 1.5 1.3125 3 3 C3 3.99 3 4.98 3 6 C5.31 6 7.62 6 10 6 C9.1875 7.9375 9.1875 7.9375 8 10 C7.01 10.33 6.02 10.66 5 11 C5.33 11.598125 5.66 12.19625 6 12.8125 C7 15 7 15 7 18 C5.948125 17.62875 4.89625 17.2575 3.8125 16.875 C-0.18632214 15.95723754 -1.49128216 16.08615391 -5 18 C-4.9175 16.906875 -4.835 15.81375 -4.75 14.6875 C-4.57398486 10.96483185 -4.57398486 10.96483185 -7 9.1875 C-7.99 8.5996875 -7.99 8.5996875 -9 8 C-9 7.34 -9 6.68 -9 6 C-6.69 6 -4.38 6 -2 6 C-1.34 4.02 -0.68 2.04 0 0 Z " fill="#E7E7EE" transform="translate(166,200)"/>
<path d="M0 0 C1.5 1.3125 1.5 1.3125 3 3 C3 3.99 3 4.98 3 6 C5.31 6 7.62 6 10 6 C9.1875 7.9375 9.1875 7.9375 8 10 C7.01 10.33 6.02 10.66 5 11 C5.66 13.31 6.32 15.62 7 18 C4.61435923 17.42415568 2.33317216 16.77772405 0 16 C-2.6569191 16.87914688 -2.6569191 16.87914688 -5 18 C-4.9175 16.906875 -4.835 15.81375 -4.75 14.6875 C-4.57398486 10.96483185 -4.57398486 10.96483185 -7 9.1875 C-7.99 8.5996875 -7.99 8.5996875 -9 8 C-9 7.34 -9 6.68 -9 6 C-6.69 6 -4.38 6 -2 6 C-1.34 4.02 -0.68 2.04 0 0 Z " fill="#E7E7EE" transform="translate(71,200)"/>
<path d="M0 0 C0.99 0.33 1.98 0.66 3 1 C3.33 2.65 3.66 4.3 4 6 C6.31 6 8.62 6 11 6 C11 6.66 11 7.32 11 8 C10.34 8.391875 9.68 8.78375 9 9.1875 C6.57398486 10.96483185 6.57398486 10.96483185 6.75 14.6875 C6.87375 16.3271875 6.87375 16.3271875 7 18 C6.1646875 17.4740625 6.1646875 17.4740625 5.3125 16.9375 C1.55681863 15.41492647 -1.2832512 16.76108373 -5 18 C-4.67 15.36 -4.34 12.72 -4 10 C-5.32 9.34 -6.64 8.68 -8 8 C-8 7.34 -8 6.68 -8 6 C-5.69 6 -3.38 6 -1 6 C-0.67 4.02 -0.34 2.04 0 0 Z " fill="#E9E9EF" transform="translate(118,139)"/>
<path d="M0 0 C0.66 0.33 1.32 0.66 2 1 C2.625 3.5625 2.625 3.5625 3 6 C5.31 6 7.62 6 10 6 C8.25 9.875 8.25 9.875 6 11 C6 13.31 6 15.62 6 18 C3.69 17.34 1.38 16.68 -1 16 C-1.66 16.66 -2.32 17.32 -3 18 C-3.99 18 -4.98 18 -6 18 C-5.34 15.69 -4.68 13.38 -4 11 C-4.639375 10.731875 -5.27875 10.46375 -5.9375 10.1875 C-8 9 -8 9 -9 6 C-6.69 6 -4.38 6 -2 6 C-1.855625 5.195625 -1.71125 4.39125 -1.5625 3.5625 C-1 1 -1 1 0 0 Z " fill="#E6E7ED" transform="translate(95,123)"/>
<path d="M0 0 C0.66 0 1.32 0 2 0 C2.185625 0.78375 2.37125 1.5675 2.5625 2.375 C3.83961627 5.39376342 3.83961627 5.39376342 7.625 6.3125 C8.73875 6.539375 9.8525 6.76625 11 7 C10.01 7.7734375 10.01 7.7734375 9 8.5625 C6.34362457 11.79995755 6.68657868 13.92552281 7 18 C5.948125 17.62875 4.89625 17.2575 3.8125 16.875 C-0.18632214 15.95723754 -1.49128216 16.08615391 -5 18 C-4.9071875 16.3603125 -4.9071875 16.3603125 -4.8125 14.6875 C-4.62756763 11.08247389 -4.62756763 11.08247389 -6.5 9.1875 C-6.995 8.795625 -7.49 8.40375 -8 8 C-8 7.34 -8 6.68 -8 6 C-5.69 6 -3.38 6 -1 6 C-0.67 4.02 -0.34 2.04 0 0 Z " fill="#E7E7EE" transform="translate(118,108)"/>
<path d="M0 0 C1.5 1.3125 1.5 1.3125 3 3 C3 3.99 3 4.98 3 6 C5.31 6 7.62 6 10 6 C9.1875 7.9375 9.1875 7.9375 8 10 C7.01 10.33 6.02 10.66 5 11 C5.66 13.31 6.32 15.62 7 18 C4.61435923 17.42415568 2.33317216 16.77772405 0 16 C-2.6569191 16.87914688 -2.6569191 16.87914688 -5 18 C-4.9175 16.906875 -4.835 15.81375 -4.75 14.6875 C-4.57398486 10.96483185 -4.57398486 10.96483185 -7 9.1875 C-7.99 8.5996875 -7.99 8.5996875 -9 8 C-9 7.34 -9 6.68 -9 6 C-6.69 6 -4.38 6 -2 6 C-1.34 4.02 -0.68 2.04 0 0 Z " fill="#E6E7ED" transform="translate(71,108)"/>
<path d="M0 0 C0.99 0.33 1.98 0.66 3 1 C3.33 2.65 3.66 4.3 4 6 C6.31 6 8.62 6 11 6 C11 6.66 11 7.32 11 8 C9 9.625 9 9.625 7 11 C7.33 13.31 7.66 15.62 8 18 C6.88625 17.4740625 6.88625 17.4740625 5.75 16.9375 C2.77299356 15.92261144 1.87632105 15.97936995 -1 17 C-2.33333333 17.33333333 -3.66666667 17.66666667 -5 18 C-4.67 15.69 -4.34 13.38 -4 11 C-4.66 10.54625 -5.32 10.0925 -6 9.625 C-6.66 9.08875 -7.32 8.5525 -8 8 C-8 7.34 -8 6.68 -8 6 C-5.69 6 -3.38 6 -1 6 C-0.67 4.02 -0.34 2.04 0 0 Z " fill="#EAEBEF" transform="translate(213,231)"/>
<path d="M0 0 C0.66 0 1.32 0 2 0 C2.33 1.98 2.66 3.96 3 6 C5.31 6 7.62 6 10 6 C8.84826645 8.46800047 7.95216435 10.04783565 6 12 C6.32198966 15.09926819 6.32198966 15.09926819 7 18 C5.88625 17.4740625 5.88625 17.4740625 4.75 16.9375 C1.80084393 15.93210589 0.84541832 15.95667995 -2 17 C-2.99 17.33 -3.98 17.66 -5 18 C-4.9175 16.906875 -4.835 15.81375 -4.75 14.6875 C-4.57398486 10.96483185 -4.57398486 10.96483185 -7 9.1875 C-7.99 8.5996875 -7.99 8.5996875 -9 8 C-9 7.34 -9 6.68 -9 6 C-6.69 6 -4.38 6 -2 6 C-1.34 4.02 -0.68 2.04 0 0 Z " fill="#EAEAEF" transform="translate(166,231)"/>
<path d="M0 0 C0.66 0 1.32 0 2 0 C2.33 1.98 2.66 3.96 3 6 C5.31 6 7.62 6 10 6 C9 9 9 9 6 11 C6.33 13.31 6.66 15.62 7 18 C5.88625 17.4740625 5.88625 17.4740625 4.75 16.9375 C1.77299356 15.92261144 0.87632105 15.97936995 -2 17 C-3.33333333 17.33333333 -4.66666667 17.66666667 -6 18 C-5.67 15.69 -5.34 13.38 -5 11 C-5.66 10.54625 -6.32 10.0925 -7 9.625 C-7.66 9.08875 -8.32 8.5525 -9 8 C-9 7.34 -9 6.68 -9 6 C-6.69 6 -4.38 6 -2 6 C-1.34 4.02 -0.68 2.04 0 0 Z " fill="#EAEBEF" transform="translate(71,231)"/>
<path d="M0 0 C0.66 0 1.32 0 2 0 C2.185625 0.78375 2.37125 1.5675 2.5625 2.375 C3.83961627 5.39376342 3.83961627 5.39376342 7.625 6.3125 C8.73875 6.539375 9.8525 6.76625 11 7 C10.01 7.7734375 10.01 7.7734375 9 8.5625 C6.34362457 11.79995755 6.68657868 13.92552281 7 18 C5.948125 17.62875 4.89625 17.2575 3.8125 16.875 C-0.18632214 15.95723754 -1.49128216 16.08615391 -5 18 C-4.9071875 16.3603125 -4.9071875 16.3603125 -4.8125 14.6875 C-4.62756763 11.08247389 -4.62756763 11.08247389 -6.5 9.1875 C-6.995 8.795625 -7.49 8.40375 -8 8 C-8 7.34 -8 6.68 -8 6 C-5.69 6 -3.38 6 -1 6 C-0.67 4.02 -0.34 2.04 0 0 Z " fill="#E8E8EE" transform="translate(118,200)"/>
<path d="M0 0 C0.66 0 1.32 0 2 0 C2.20625 0.804375 2.4125 1.60875 2.625 2.4375 C3.07875 3.283125 3.5325 4.12875 4 5 C7.05272465 5.89830839 7.05272465 5.89830839 10 6 C9.690625 6.5775 9.38125 7.155 9.0625 7.75 C7.34416297 11.38883135 7 13.92920988 7 18 C5.948125 17.62875 4.89625 17.2575 3.8125 16.875 C-0.18632214 15.95723754 -1.49128216 16.08615391 -5 18 C-4.9071875 16.3603125 -4.9071875 16.3603125 -4.8125 14.6875 C-4.62756763 11.08247389 -4.62756763 11.08247389 -6.5 9.1875 C-6.995 8.795625 -7.49 8.40375 -8 8 C-8 7.34 -8 6.68 -8 6 C-6.576875 5.9071875 -6.576875 5.9071875 -5.125 5.8125 C-4.09375 5.544375 -3.0625 5.27625 -2 5 C-0.54708727 2.53744315 -0.54708727 2.53744315 0 0 Z " fill="#EAEAEF" transform="translate(142,154)"/>
<path d="M0 0 C0.66 0 1.32 0 2 0 C2.33 1.98 2.66 3.96 3 6 C5.31 6 7.62 6 10 6 C8.84826645 8.46800047 7.95216435 10.04783565 6 12 C6.32198966 15.09926819 6.32198966 15.09926819 7 18 C5.88625 17.4740625 5.88625 17.4740625 4.75 16.9375 C1.80084393 15.93210589 0.84541832 15.95667995 -2 17 C-2.99 17.33 -3.98 17.66 -5 18 C-4.9175 16.906875 -4.835 15.81375 -4.75 14.6875 C-4.57398486 10.96483185 -4.57398486 10.96483185 -7 9.1875 C-7.99 8.5996875 -7.99 8.5996875 -9 8 C-9 7.34 -9 6.68 -9 6 C-6.69 6 -4.38 6 -2 6 C-1.34 4.02 -0.68 2.04 0 0 Z " fill="#EAEAEF" transform="translate(166,139)"/>
<path d="M0 0 C0.66 0 1.32 0 2 0 C2.33 1.98 2.66 3.96 3 6 C5.31 6 7.62 6 10 6 C9 9 9 9 6 11 C6.33 13.31 6.66 15.62 7 18 C5.88625 17.4740625 5.88625 17.4740625 4.75 16.9375 C1.77299356 15.92261144 0.87632105 15.97936995 -2 17 C-3.33333333 17.33333333 -4.66666667 17.66666667 -6 18 C-5.67 15.69 -5.34 13.38 -5 11 C-5.66 10.54625 -6.32 10.0925 -7 9.625 C-7.66 9.08875 -8.32 8.5525 -9 8 C-9 7.34 -9 6.68 -9 6 C-6.69 6 -4.38 6 -2 6 C-1.34 4.02 -0.68 2.04 0 0 Z " fill="#EAEAEF" transform="translate(71,139)"/>
<path d="M0 0 C0.66 0 1.32 0 2 0 C2.20625 0.804375 2.4125 1.60875 2.625 2.4375 C3.07875 3.283125 3.5325 4.12875 4 5 C7.05272465 5.89830839 7.05272465 5.89830839 10 6 C9.690625 6.5775 9.38125 7.155 9.0625 7.75 C7.34416297 11.38883135 7 13.92920988 7 18 C5.948125 17.62875 4.89625 17.2575 3.8125 16.875 C-0.18632214 15.95723754 -1.49128216 16.08615391 -5 18 C-4.9071875 16.3603125 -4.9071875 16.3603125 -4.8125 14.6875 C-4.62756763 11.08247389 -4.62756763 11.08247389 -6.5 9.1875 C-6.995 8.795625 -7.49 8.40375 -8 8 C-8 7.34 -8 6.68 -8 6 C-6.576875 5.9071875 -6.576875 5.9071875 -5.125 5.8125 C-4.09375 5.544375 -3.0625 5.27625 -2 5 C-0.54708727 2.53744315 -0.54708727 2.53744315 0 0 Z " fill="#EAEAEF" transform="translate(23,139)"/>
<path d="M0 0 C0.66 0.33 1.32 0.66 2 1 C2.625 3.0625 2.625 3.0625 3 5 C5.31 5.33 7.62 5.66 10 6 C8.25 9.875 8.25 9.875 6 11 C6.33 13.31 6.66 15.62 7 18 C4.61435923 17.42415568 2.33317216 16.77772405 0 16 C-2.6569191 16.87914688 -2.6569191 16.87914688 -5 18 C-4.9175 16.906875 -4.835 15.81375 -4.75 14.6875 C-4.57398486 10.96483185 -4.57398486 10.96483185 -7 9.1875 C-7.99 8.5996875 -7.99 8.5996875 -9 8 C-9 7.34 -9 6.68 -9 6 C-6.69 6 -4.38 6 -2 6 C-1.34 4.02 -0.68 2.04 0 0 Z " fill="#E8E8EE" transform="translate(190,215)"/>
<path d="M0 0 C0.66 0 1.32 0 2 0 C2.33 1.98 2.66 3.96 3 6 C5.31 6 7.62 6 10 6 C9 9 9 9 6 11 C6.33 13.31 6.66 15.62 7 18 C5.88625 17.4740625 5.88625 17.4740625 4.75 16.9375 C1.77299356 15.92261144 0.87632105 15.97936995 -2 17 C-3.33333333 17.33333333 -4.66666667 17.66666667 -6 18 C-5.67 15.69 -5.34 13.38 -5 11 C-5.66 10.54625 -6.32 10.0925 -7 9.625 C-7.66 9.08875 -8.32 8.5525 -9 8 C-9 7.34 -9 6.68 -9 6 C-6.69 6 -4.38 6 -2 6 C-1.855625 5.195625 -1.71125 4.39125 -1.5625 3.5625 C-1 1 -1 1 0 0 Z " fill="#EAEAEF" transform="translate(190,154)"/>
<path d="M0 0 C0.66 0 1.32 0 2 0 C2.33 1.98 2.66 3.96 3 6 C5.31 6 7.62 6 10 6 C8.25 9.875 8.25 9.875 6 11 C6.33 13.31 6.66 15.62 7 18 C5.88625 17.4740625 5.88625 17.4740625 4.75 16.9375 C1.80084393 15.93210589 0.84541832 15.95667995 -2 17 C-2.99 17.33 -3.98 17.66 -5 18 C-4.9175 16.906875 -4.835 15.81375 -4.75 14.6875 C-4.57398486 10.96483185 -4.57398486 10.96483185 -7 9.1875 C-7.99 8.5996875 -7.99 8.5996875 -9 8 C-9 7.34 -9 6.68 -9 6 C-6.69 6 -4.38 6 -2 6 C-1.34 4.02 -0.68 2.04 0 0 Z " fill="#EAEAEF" transform="translate(47,154)"/>
<path d="M0 0 C0.99 0.33 1.98 0.66 3 1 C3.33 2.65 3.66 4.3 4 6 C6.31 6 8.62 6 11 6 C10 9 10 9 7 11 C6.74984127 14.58357241 6.74984127 14.58357241 7 18 C6.13375 17.4740625 6.13375 17.4740625 5.25 16.9375 C2.56641628 15.81934012 1.69390896 16.07396879 -1 17 C-2.33333333 17.33333333 -3.66666667 17.66666667 -5 18 C-4.67 15.69 -4.34 13.38 -4 11 C-4.66 10.54625 -5.32 10.0925 -6 9.625 C-6.66 9.08875 -7.32 8.5525 -8 8 C-8 7.34 -8 6.68 -8 6 C-5.69 6 -3.38 6 -1 6 C-0.67 4.02 -0.34 2.04 0 0 Z " fill="#EAEBEF" transform="translate(213,139)"/>
<path d="M0 0 C0.66 0 1.32 0 2 0 C2.20625 0.804375 2.4125 1.60875 2.625 2.4375 C3.07875 3.283125 3.5325 4.12875 4 5 C7.05272465 5.89830839 7.05272465 5.89830839 10 6 C9.34 7.32 8.68 8.64 8 10 C7.34 10 6.68 10 6 10 C6.33 12.64 6.66 15.28 7 18 C5.948125 17.62875 4.89625 17.2575 3.8125 16.875 C-0.18632214 15.95723754 -1.49128216 16.08615391 -5 18 C-4.67 15.36 -4.34 12.72 -4 10 C-5.32 9.34 -6.64 8.68 -8 8 C-8 7.34 -8 6.68 -8 6 C-6.576875 5.9071875 -6.576875 5.9071875 -5.125 5.8125 C-4.09375 5.544375 -3.0625 5.27625 -2 5 C-0.54708727 2.53744315 -0.54708727 2.53744315 0 0 Z " fill="#EBEBF0" transform="translate(23,231)"/>
<path d="M0 0 C0.66 0.33 1.32 0.66 2 1 C2.625 3.5625 2.625 3.5625 3 6 C5.31 6 7.62 6 10 6 C9.1875 7.9375 9.1875 7.9375 8 10 C7.01 10.33 6.02 10.66 5 11 C5.33 13.31 5.66 15.62 6 18 C5.113125 17.62875 4.22625 17.2575 3.3125 16.875 C-0.40826005 15.89215772 -1.67438135 16.23937836 -5 18 C-4.9175 16.906875 -4.835 15.81375 -4.75 14.6875 C-4.57398486 10.96483185 -4.57398486 10.96483185 -7 9.1875 C-7.99 8.5996875 -7.99 8.5996875 -9 8 C-9 7.34 -9 6.68 -9 6 C-6.69 6 -4.38 6 -2 6 C-1.34 4.02 -0.68 2.04 0 0 Z " fill="#E7E8EE" transform="translate(190,123)"/>
<path d="M0 0 C0.99 0.33 1.98 0.66 3 1 C3.33 2.65 3.66 4.3 4 6 C6.31 6 8.62 6 11 6 C11 6.66 11 7.32 11 8 C10.319375 8.5775 9.63875 9.155 8.9375 9.75 C8.298125 10.4925 7.65875 11.235 7 12 C7.14349347 15.19954954 7.14349347 15.19954954 8 18 C7.236875 17.67 6.47375 17.34 5.6875 17 C1.41535909 15.41036617 -0.95586595 16.25118528 -5 18 C-4.47731534 15.23723823 -3.89130413 12.6739124 -3 10 C-5.475 9.01 -5.475 9.01 -8 8 C-8 7.34 -8 6.68 -8 6 C-5.69 6 -3.38 6 -1 6 C-0.67 4.02 -0.34 2.04 0 0 Z " fill="#E9EAEF" transform="translate(189,185)"/>
<path d="M0 0 C0.66 0 1.32 0 2 0 C2.33 1.98 2.66 3.96 3 6 C5.31 6 7.62 6 10 6 C9 9 9 9 7 10 C7 12.64 7 15.28 7 18 C6.1646875 17.4740625 6.1646875 17.4740625 5.3125 16.9375 C1.55681863 15.41492647 -1.2832512 16.76108373 -5 18 C-4.67 15.36 -4.34 12.72 -4 10 C-4.639375 9.71125 -5.27875 9.4225 -5.9375 9.125 C-8 8 -8 8 -9 6 C-6.69 6 -4.38 6 -2 6 C-1.34 4.02 -0.68 2.04 0 0 Z " fill="#E9EAEF" transform="translate(47,185)"/>
<path d="M0 0 C0.99 0.33 1.98 0.66 3 1 C3.33 2.65 3.66 4.3 4 6 C6.31 6 8.62 6 11 6 C9.625 8 9.625 8 8 10 C7.34 10 6.68 10 6 10 C6.33 12.64 6.66 15.28 7 18 C6.1646875 17.4740625 6.1646875 17.4740625 5.3125 16.9375 C1.55681863 15.41492647 -1.2832512 16.76108373 -5 18 C-4.90234375 15.98177083 -4.8046875 13.96354167 -4.70703125 11.9453125 C-4.80371094 11.30335938 -4.90039062 10.66140625 -5 10 C-5.99 9.34 -6.98 8.68 -8 8 C-8 7.34 -8 6.68 -8 6 C-5.69 6 -3.38 6 -1 6 C-0.67 4.02 -0.34 2.04 0 0 Z " fill="#E9EAEF" transform="translate(118,170)"/>
<path d="M0 0 C0.66 0.33 1.32 0.66 2 1 C2.625 4.0625 2.625 4.0625 3 7 C5.31 7 7.62 7 10 7 C8.625 9 8.625 9 7 11 C6.34 11 5.68 11 5 11 C5.66 13.64 6.32 16.28 7 19 C2.25 17.125 2.25 17.125 0 16 C-0.61875 16.495 -1.2375 16.99 -1.875 17.5 C-4 19 -4 19 -6 19 C-5.67 16.69 -5.34 14.38 -5 12 C-5.66 11.54625 -6.32 11.0925 -7 10.625 C-7.66 10.08875 -8.32 9.5525 -9 9 C-9 8.34 -9 7.68 -9 7 C-6.69 7 -4.38 7 -2 7 C-1.855625 6.030625 -1.71125 5.06125 -1.5625 4.0625 C-1 1 -1 1 0 0 Z " fill="#EAEAEF" transform="translate(214,169)"/>
<path d="M0 0 C0.99 0.33 1.98 0.66 3 1 C3.33 2.65 3.66 4.3 4 6 C6.31 6 8.62 6 11 6 C9.625 8 9.625 8 8 10 C7.34 10 6.68 10 6 10 C6.66 12.64 7.32 15.28 8 18 C7.236875 17.67 6.47375 17.34 5.6875 17 C1.41535909 15.41036617 -0.95586595 16.25118528 -5 18 C-4.67 15.69 -4.34 13.38 -4 11 C-4.66 10.54625 -5.32 10.0925 -6 9.625 C-6.66 9.08875 -7.32 8.5525 -8 8 C-8 7.34 -8 6.68 -8 6 C-5.69 6 -3.38 6 -1 6 C-0.67 4.02 -0.34 2.04 0 0 Z " fill="#EBEBF0" transform="translate(94,185)"/>
<path d="M0 0 C0.66 0 1.32 0 2 0 C2.20625 0.804375 2.4125 1.60875 2.625 2.4375 C3.07875 3.283125 3.5325 4.12875 4 5 C7.05272465 5.89830839 7.05272465 5.89830839 10 6 C9 9 9 9 7 10 C7 12.64 7 15.28 7 18 C6.1646875 17.4740625 6.1646875 17.4740625 5.3125 16.9375 C1.55681863 15.41492647 -1.2832512 16.76108373 -5 18 C-4.90234375 15.98177083 -4.8046875 13.96354167 -4.70703125 11.9453125 C-4.80371094 11.30335938 -4.90039062 10.66140625 -5 10 C-5.99 9.34 -6.98 8.68 -8 8 C-8 7.34 -8 6.68 -8 6 C-6.576875 5.9071875 -6.576875 5.9071875 -5.125 5.8125 C-4.09375 5.544375 -3.0625 5.27625 -2 5 C-0.54708727 2.53744315 -0.54708727 2.53744315 0 0 Z " fill="#EBECF0" transform="translate(142,185)"/>
<path d="M0 0 C0.66 0 1.32 0 2 0 C2.33 1.98 2.66 3.96 3 6 C5.31 6 7.62 6 10 6 C10 6.66 10 7.32 10 8 C9.319375 8.5775 8.63875 9.155 7.9375 9.75 C7.298125 10.4925 6.65875 11.235 6 12 C6.14349347 15.19954954 6.14349347 15.19954954 7 18 C6.195625 17.4740625 6.195625 17.4740625 5.375 16.9375 C2.2365758 15.69864834 0.23787556 16.22572541 -3 17 C-3.66 17.33 -4.32 17.66 -5 18 C-4.67 15.36 -4.34 12.72 -4 10 C-4.639375 9.71125 -5.27875 9.4225 -5.9375 9.125 C-8 8 -8 8 -9 6 C-6.69 6 -4.38 6 -2 6 C-1.34 4.02 -0.68 2.04 0 0 Z " fill="#EBEBF0" transform="translate(166,170)"/>
<path d="M0 0 C0.99 0.33 1.98 0.66 3 1 C3.6875 3.0625 3.6875 3.0625 4 5 C6.97 5.495 6.97 5.495 10 6 C9 9 9 9 7 10 C7 12.64 7 15.28 7 18 C6.1646875 17.4740625 6.1646875 17.4740625 5.3125 16.9375 C1.55681863 15.41492647 -1.2832512 16.76108373 -5 18 C-4.90234375 15.98177083 -4.8046875 13.96354167 -4.70703125 11.9453125 C-4.80371094 11.30335938 -4.90039062 10.66140625 -5 10 C-5.99 9.34 -6.98 8.68 -8 8 C-8 7.34 -8 6.68 -8 6 C-6.576875 5.9071875 -6.576875 5.9071875 -5.125 5.8125 C-4.09375 5.544375 -3.0625 5.27625 -2 5 C-0.54708727 2.53744315 -0.54708727 2.53744315 0 0 Z " fill="#EBEBF0" transform="translate(23,170)"/>
<path d="M0 0 C0.99 0.33 1.98 0.66 3 1 C3.33 2.65 3.66 4.3 4 6 C6.31 6 8.62 6 11 6 C11 6.66 11 7.32 11 8 C9.35 8.66 7.7 9.32 6 10 C6.33 10.763125 6.66 11.52625 7 12.3125 C8 15 8 15 8 18 C7.236875 17.67 6.47375 17.34 5.6875 17 C1.41535909 15.41036617 -0.95586595 16.25118528 -5 18 C-4.34 15.36 -3.68 12.72 -3 10 C-3.639375 9.71125 -4.27875 9.4225 -4.9375 9.125 C-7 8 -7 8 -8 6 C-5.69 6 -3.38 6 -1 6 C-0.67 4.02 -0.34 2.04 0 0 Z " fill="#EBEBF0" transform="translate(70,170)"/>
</svg>
